<svg width="247" height="88" viewBox="0 0 247 88" fill="none" xmlns="http://www.w3.org/2000/svg">
<path d="M5.12 17.8C4.02667 17.8 3.12 17.4533 2.4 16.76C1.70667 16.04 1.36 15.1333 1.36 14.04C1.36 12.92 1.70667 12.0133 2.4 11.32C3.12 10.6267 4.02667 10.28 5.12 10.28C6.21333 10.28 7.10667 10.6267 7.8 11.32C8.52 12.0133 8.88 12.92 8.88 14.04C8.88 15.1067 8.52 16 7.8 16.72C7.10667 17.44 6.21333 17.8 5.12 17.8ZM1.92 40C1.73333 40 1.58667 39.9467 1.48 39.84C1.37333 39.7333 1.32 39.5867 1.32 39.4V19.8C1.32 19.6133 1.37333 19.4667 1.48 19.36C1.58667 19.2533 1.73333 19.2 1.92 19.2H8.24C8.42667 19.2 8.57333 19.2533 8.68 19.36C8.78667 19.4667 8.84 19.6133 8.84 19.8V39.4C8.84 39.5867 8.78667 39.7333 8.68 39.84C8.57333 39.9467 8.42667 40 8.24 40H1.92ZM23.9563 18.88C25.2896 18.88 26.4896 19.1733 27.5563 19.76C28.6229 20.3467 29.4629 21.2133 30.0763 22.36C30.7163 23.48 31.0363 24.8133 31.0363 26.36V39.4C31.0363 39.5867 30.9829 39.7333 30.8763 39.84C30.7696 39.9467 30.6229 40 30.4363 40H24.1163C23.9296 40 23.7829 39.9467 23.6763 39.84C23.5696 39.7333 23.5163 39.5867 23.5163 39.4V28C23.5163 27.2 23.3029 26.56 22.8763 26.08C22.4763 25.5733 21.9429 25.32 21.2763 25.32C20.5829 25.32 20.0229 25.5733 19.5963 26.08C19.1963 26.56 18.9963 27.2 18.9963 28V39.4C18.9963 39.5867 18.9429 39.7333 18.8363 39.84C18.7296 39.9467 18.5829 40 18.3963 40H12.0763C11.8896 40 11.7429 39.9467 11.6363 39.84C11.5296 39.7333 11.4762 39.5867 11.4762 39.4V19.8C11.4762 19.6133 11.5296 19.4667 11.6363 19.36C11.7429 19.2533 11.8896 19.2 12.0763 19.2H18.3963C18.5829 19.2 18.7296 19.2533 18.8363 19.36C18.9429 19.4667 18.9963 19.6133 18.9963 19.8V21.24C18.9963 21.3467 19.0229 21.4133 19.0763 21.44C19.1296 21.4667 19.1696 21.44 19.1963 21.36C20.2096 19.7067 21.7963 18.88 23.9563 18.88ZM42.8666 40.32C39.8532 40.32 37.4666 39.7333 35.7066 38.56C33.9732 37.3867 33.1066 35.8267 33.1066 33.88V33.52C33.1066 33.3333 33.1599 33.1867 33.2666 33.08C33.3732 32.9733 33.5199 32.92 33.7066 32.92H39.7066C40.1066 32.92 40.3066 33.0667 40.3066 33.36C40.3066 33.7867 40.5332 34.1333 40.9866 34.4C41.4666 34.6667 42.0799 34.8 42.8266 34.8C43.4132 34.8 43.8799 34.72 44.2266 34.56C44.5999 34.3733 44.7866 34.12 44.7866 33.8C44.7866 33.4267 44.5732 33.1733 44.1466 33.04C43.7199 32.88 42.9599 32.7067 41.8666 32.52C40.8532 32.3867 39.9466 32.2267 39.1466 32.04C38.3466 31.8533 37.5732 31.5733 36.8266 31.2C34.5332 30.08 33.3866 28.32 33.3866 25.92C33.3866 23.76 34.2266 22.0533 35.9066 20.8C37.5866 19.52 39.7999 18.88 42.5466 18.88C44.4132 18.88 46.0399 19.1867 47.4266 19.8C48.8399 20.3867 49.9332 21.2267 50.7066 22.32C51.4799 23.4133 51.8666 24.68 51.8666 26.12C51.8666 26.4133 51.6666 26.56 51.2666 26.56H45.4666C45.0666 26.56 44.8666 26.4133 44.8666 26.12C44.8666 25.6667 44.6666 25.32 44.2666 25.08C43.8666 24.8133 43.3332 24.68 42.6666 24.68C42.0532 24.68 41.5466 24.7867 41.1466 25C40.7732 25.1867 40.5866 25.4533 40.5866 25.8C40.5866 26.2267 40.8399 26.52 41.3466 26.68C41.8532 26.84 42.6666 27 43.7866 27.16C43.9199 27.1867 44.4266 27.2667 45.3066 27.4C46.2132 27.5333 47.0799 27.7467 47.9066 28.04C49.3466 28.5467 50.4399 29.2533 51.1866 30.16C51.9599 31.04 52.3466 32.2 52.3466 33.64C52.3466 35.8267 51.4932 37.4933 49.7866 38.64C48.0799 39.76 45.7732 40.32 42.8666 40.32ZM58.0497 17.8C56.9564 17.8 56.0497 17.4533 55.3297 16.76C54.6364 16.04 54.2897 15.1333 54.2897 14.04C54.2897 12.92 54.6364 12.0133 55.3297 11.32C56.0497 10.6267 56.9564 10.28 58.0497 10.28C59.143 10.28 60.0364 10.6267 60.7297 11.32C61.4497 12.0133 61.8097 12.92 61.8097 14.04C61.8097 15.1067 61.4497 16 60.7297 16.72C60.0364 17.44 59.143 17.8 58.0497 17.8ZM54.8497 40C54.663 40 54.5164 39.9467 54.4097 39.84C54.303 39.7333 54.2497 39.5867 54.2497 39.4V19.8C54.2497 19.6133 54.303 19.4667 54.4097 19.36C54.5164 19.2533 54.663 19.2 54.8497 19.2H61.1697C61.3564 19.2 61.503 19.2533 61.6097 19.36C61.7164 19.4667 61.7697 19.6133 61.7697 19.8V39.4C61.7697 39.5867 61.7164 39.7333 61.6097 39.84C61.503 39.9467 61.3564 40 61.1697 40H54.8497ZM77.0059 19.8C77.0059 19.6133 77.0593 19.4667 77.1659 19.36C77.2726 19.2533 77.4193 19.2 77.6059 19.2H83.9259C84.1126 19.2 84.2593 19.2533 84.3659 19.36C84.4726 19.4667 84.5259 19.6133 84.5259 19.8V37.28C84.5259 41.0933 83.4193 43.8 81.2059 45.4C79.0193 47.0267 76.2593 47.84 72.9259 47.84C71.4326 47.84 70.0326 47.72 68.7259 47.48C68.3793 47.4 68.2059 47.1733 68.2059 46.8L68.4459 41.4C68.4459 40.9467 68.6859 40.7867 69.1659 40.92C70.2859 41.2133 71.3393 41.36 72.3259 41.36C73.6059 41.36 74.6593 41.0933 75.4859 40.56C76.3126 40.0267 76.8059 39.2133 76.9659 38.12C76.9926 38.0133 76.9659 37.9467 76.8859 37.92C76.8326 37.8933 76.7659 37.92 76.6859 38C75.7793 38.8533 74.4726 39.28 72.7659 39.28C68.4993 39.28 65.7793 37.5467 64.6059 34.08C64.1526 32.7467 63.9259 31.1867 63.9259 29.4C63.9259 27.4267 64.2059 25.7467 64.7659 24.36C65.4059 22.68 66.4059 21.3467 67.7659 20.36C69.1526 19.3733 70.7393 18.88 72.5259 18.88C74.3659 18.88 75.7793 19.44 76.7659 20.56C76.8193 20.6133 76.8726 20.64 76.9259 20.64C76.9793 20.6133 77.0059 20.56 77.0059 20.48V19.8ZM76.6059 32.12C76.8726 31.4267 77.0059 30.5067 77.0059 29.36C77.0059 28.2933 76.8593 27.4267 76.5659 26.76C76.1126 25.8 75.3526 25.32 74.2859 25.32C73.3526 25.32 72.6459 25.7867 72.1659 26.72C71.7393 27.4667 71.5259 28.3867 71.5259 29.48C71.5259 30.5467 71.6993 31.4133 72.0459 32.08C72.5259 33.0133 73.2993 33.48 74.3659 33.48C75.4326 33.48 76.1793 33.0267 76.6059 32.12ZM99.6594 18.88C100.993 18.88 102.193 19.1733 103.259 19.76C104.326 20.3467 105.166 21.2133 105.779 22.36C106.419 23.48 106.739 24.8133 106.739 26.36V39.4C106.739 39.5867 106.686 39.7333 106.579 39.84C106.473 39.9467 106.326 40 106.139 40H99.8194C99.6327 40 99.486 39.9467 99.3794 39.84C99.2727 39.7333 99.2194 39.5867 99.2194 39.4V28C99.2194 27.2 99.006 26.56 98.5794 26.08C98.1794 25.5733 97.646 25.32 96.9794 25.32C96.286 25.32 95.726 25.5733 95.2994 26.08C94.8994 26.56 94.6994 27.2 94.6994 28V39.4C94.6994 39.5867 94.646 39.7333 94.5394 39.84C94.4327 39.9467 94.286 40 94.0994 40H87.7794C87.5927 40 87.446 39.9467 87.3394 39.84C87.2327 39.7333 87.1794 39.5867 87.1794 39.4V12.6C87.1794 12.4133 87.2327 12.2667 87.3394 12.16C87.446 12.0533 87.5927 12 87.7794 12H94.0994C94.286 12 94.4327 12.0533 94.5394 12.16C94.646 12.2667 94.6994 12.4133 94.6994 12.6V21.24C94.6994 21.3467 94.726 21.4133 94.7794 21.44C94.8327 21.4667 94.8727 21.44 94.8994 21.36C95.9127 19.7067 97.4994 18.88 99.6594 18.88ZM122.85 24.6C122.85 24.7867 122.796 24.9333 122.69 25.04C122.583 25.1467 122.436 25.2 122.25 25.2H118.93C118.796 25.2 118.73 25.2667 118.73 25.4V31.68C118.73 33.0133 119.21 33.68 120.17 33.68H121.65C121.836 33.68 121.983 33.7333 122.09 33.84C122.196 33.9467 122.25 34.0933 122.25 34.28V39.4C122.25 39.7733 122.05 39.9867 121.65 40.04C120.61 40.12 119.61 40.16 118.65 40.16C116.223 40.16 114.436 39.7867 113.29 39.04C112.143 38.2933 111.556 36.88 111.53 34.8V25.4C111.53 25.2667 111.463 25.2 111.33 25.2H109.17C108.983 25.2 108.836 25.1467 108.73 25.04C108.623 24.9333 108.57 24.7867 108.57 24.6V19.8C108.57 19.6133 108.623 19.4667 108.73 19.36C108.836 19.2533 108.983 19.2 109.17 19.2H111.33C111.463 19.2 111.53 19.1333 111.53 19V14.2C111.53 14.0133 111.583 13.8667 111.69 13.76C111.796 13.6533 111.943 13.6 112.13 13.6H118.13C118.316 13.6 118.463 13.6533 118.57 13.76C118.676 13.8667 118.73 14.0133 118.73 14.2V19C118.73 19.1333 118.796 19.2 118.93 19.2H122.25C122.436 19.2 122.583 19.2533 122.69 19.36C122.796 19.4667 122.85 19.6133 122.85 19.8V24.6ZM157.13 25.12C157.317 25.12 157.464 25.1733 157.57 25.28C157.677 25.3867 157.73 25.5333 157.73 25.72V30.92C157.73 31.1067 157.677 31.2533 157.57 31.36C157.464 31.4667 157.317 31.52 157.13 31.52H152.49C152.357 31.52 152.29 31.5867 152.29 31.72V36.36C152.29 36.5467 152.237 36.6933 152.13 36.8C152.024 36.9067 151.877 36.96 151.69 36.96H146.49C146.304 36.96 146.157 36.9067 146.05 36.8C145.944 36.6933 145.89 36.5467 145.89 36.36V31.72C145.89 31.5867 145.824 31.52 145.69 31.52H141.05C140.864 31.52 140.717 31.4667 140.61 31.36C140.504 31.2533 140.45 31.1067 140.45 30.92V25.72C140.45 25.5333 140.504 25.3867 140.61 25.28C140.717 25.1733 140.864 25.12 141.05 25.12H145.69C145.824 25.12 145.89 25.0533 145.89 24.92V20.28C145.89 20.0933 145.944 19.9467 146.05 19.84C146.157 19.7333 146.304 19.68 146.49 19.68H151.69C151.877 19.68 152.024 19.7333 152.13 19.84C152.237 19.9467 152.29 20.0933 152.29 20.28V24.92C152.29 25.0533 152.357 25.12 152.49 25.12H157.13Z" fill="white"/>
<path d="M52.12 57.8C51.0267 57.8 50.12 57.4533 49.4 56.76C48.7067 56.04 48.36 55.1333 48.36 54.04C48.36 52.92 48.7067 52.0133 49.4 51.32C50.12 50.6267 51.0267 50.28 52.12 50.28C53.2133 50.28 54.1067 50.6267 54.8 51.32C55.52 52.0133 55.88 52.92 55.88 54.04C55.88 55.1067 55.52 56 54.8 56.72C54.1067 57.44 53.2133 57.8 52.12 57.8ZM48.92 80C48.7333 80 48.5867 79.9467 48.48 79.84C48.3733 79.7333 48.32 79.5867 48.32 79.4V59.8C48.32 59.6133 48.3733 59.4667 48.48 59.36C48.5867 59.2533 48.7333 59.2 48.92 59.2H55.24C55.4267 59.2 55.5733 59.2533 55.68 59.36C55.7867 59.4667 55.84 59.6133 55.84 59.8V79.4C55.84 79.5867 55.7867 79.7333 55.68 79.84C55.5733 79.9467 55.4267 80 55.24 80H48.92ZM70.9563 58.88C72.2896 58.88 73.4896 59.1733 74.5563 59.76C75.6229 60.3467 76.4629 61.2133 77.0763 62.36C77.7163 63.48 78.0363 64.8133 78.0363 66.36V79.4C78.0363 79.5867 77.9829 79.7333 77.8763 79.84C77.7696 79.9467 77.6229 80 77.4363 80H71.1163C70.9296 80 70.7829 79.9467 70.6763 79.84C70.5696 79.7333 70.5163 79.5867 70.5163 79.4V68C70.5163 67.2 70.3029 66.56 69.8763 66.08C69.4763 65.5733 68.9429 65.32 68.2763 65.32C67.5829 65.32 67.0229 65.5733 66.5963 66.08C66.1963 66.56 65.9963 67.2 65.9963 68V79.4C65.9963 79.5867 65.9429 79.7333 65.8363 79.84C65.7296 79.9467 65.5829 80 65.3963 80H59.0763C58.8896 80 58.7429 79.9467 58.6363 79.84C58.5296 79.7333 58.4762 79.5867 58.4762 79.4V59.8C58.4762 59.6133 58.5296 59.4667 58.6363 59.36C58.7429 59.2533 58.8896 59.2 59.0763 59.2H65.3963C65.5829 59.2 65.7296 59.2533 65.8363 59.36C65.9429 59.4667 65.9963 59.6133 65.9963 59.8V61.24C65.9963 61.3467 66.0229 61.4133 66.0763 61.44C66.1296 61.4667 66.1696 61.44 66.1963 61.36C67.2096 59.7067 68.7963 58.88 70.9563 58.88ZM94.1466 64.6C94.1466 64.7867 94.0932 64.9333 93.9866 65.04C93.8799 65.1467 93.7332 65.2 93.5466 65.2H90.2266C90.0932 65.2 90.0266 65.2667 90.0266 65.4V71.68C90.0266 73.0133 90.5066 73.68 91.4666 73.68H92.9466C93.1332 73.68 93.2799 73.7333 93.3866 73.84C93.4932 73.9467 93.5466 74.0933 93.5466 74.28V79.4C93.5466 79.7733 93.3466 79.9867 92.9466 80.04C91.9066 80.12 90.9066 80.16 89.9466 80.16C87.5199 80.16 85.7332 79.7867 84.5866 79.04C83.4399 78.2933 82.8532 76.88 82.8266 74.8V65.4C82.8266 65.2667 82.7599 65.2 82.6266 65.2H80.4666C80.2799 65.2 80.1332 65.1467 80.0266 65.04C79.9199 64.9333 79.8666 64.7867 79.8666 64.6V59.8C79.8666 59.6133 79.9199 59.4667 80.0266 59.36C80.1332 59.2533 80.2799 59.2 80.4666 59.2H82.6266C82.7599 59.2 82.8266 59.1333 82.8266 59V54.2C82.8266 54.0133 82.8799 53.8667 82.9866 53.76C83.0932 53.6533 83.2399 53.6 83.4266 53.6H89.4266C89.6132 53.6 89.7599 53.6533 89.8666 53.76C89.9732 53.8667 90.0266 54.0133 90.0266 54.2V59C90.0266 59.1333 90.0932 59.2 90.2266 59.2H93.5466C93.7332 59.2 93.8799 59.2533 93.9866 59.36C94.0932 59.4667 94.1466 59.6133 94.1466 59.8V64.6ZM116.053 68.12C116.133 68.7067 116.173 69.3067 116.173 69.92C116.173 70.3467 116.16 70.68 116.133 70.92C116.133 71.2933 115.933 71.48 115.533 71.48H103.533C103.427 71.48 103.373 71.5333 103.373 71.64C103.373 71.88 103.48 72.16 103.693 72.48C103.96 72.9333 104.427 73.32 105.093 73.64C105.787 73.9333 106.56 74.08 107.413 74.08C108.133 74.08 108.8 73.9733 109.413 73.76C110.027 73.5467 110.547 73.24 110.973 72.84C111.107 72.7333 111.24 72.68 111.373 72.68C111.56 72.68 111.707 72.76 111.813 72.92L114.853 76.8C114.96 76.9333 115.013 77.08 115.013 77.24C115.013 77.4 114.947 77.5333 114.813 77.64C113.88 78.5467 112.72 79.2267 111.333 79.68C109.947 80.1067 108.453 80.32 106.853 80.32C104.373 80.32 102.253 79.8 100.493 78.76C98.7334 77.72 97.4534 76.24 96.6534 74.32C96.0668 72.9333 95.7734 71.44 95.7734 69.84C95.7734 68.16 96.0134 66.6667 96.4934 65.36C97.2134 63.3333 98.4001 61.7467 100.053 60.6C101.707 59.4533 103.653 58.88 105.893 58.88C107.6 58.88 109.173 59.28 110.613 60.08C112.08 60.88 113.28 61.9867 114.213 63.4C115.173 64.7867 115.787 66.36 116.053 68.12ZM105.853 65.32C104.76 65.32 104 65.8533 103.573 66.92L103.413 67.36C103.387 67.44 103.4 67.5067 103.453 67.56C103.507 67.5867 103.56 67.6 103.613 67.6H108.173C108.28 67.6 108.333 67.5467 108.333 67.44C108.333 67.3333 108.293 67.16 108.213 66.92C108.08 66.4133 107.8 66.0267 107.373 65.76C106.973 65.4667 106.467 65.32 105.853 65.32ZM129.844 58.92C130.75 58.92 131.47 59.0933 132.004 59.44C132.244 59.5733 132.337 59.8267 132.284 60.2L131.324 66.36C131.297 66.5733 131.217 66.7067 131.084 66.76C130.977 66.8133 130.817 66.8133 130.604 66.76C130.124 66.6533 129.697 66.6 129.324 66.6C128.924 66.6 128.55 66.64 128.204 66.72C127.51 66.8533 126.91 67.1467 126.404 67.6C125.924 68.0267 125.684 68.6133 125.684 69.36V79.4C125.684 79.5867 125.63 79.7333 125.524 79.84C125.417 79.9467 125.27 80 125.084 80H118.764C118.577 80 118.43 79.9467 118.324 79.84C118.217 79.7333 118.164 79.5867 118.164 79.4V59.8C118.164 59.6133 118.217 59.4667 118.324 59.36C118.43 59.2533 118.577 59.2 118.764 59.2H125.084C125.27 59.2 125.417 59.2533 125.524 59.36C125.63 59.4667 125.684 59.6133 125.684 59.8V60.76C125.684 60.84 125.71 60.8933 125.764 60.92C125.817 60.9467 125.857 60.9333 125.884 60.88C126.897 59.5733 128.217 58.92 129.844 58.92ZM142.751 58.88C144.564 58.88 146.231 59.1867 147.751 59.8C149.271 60.4133 150.471 61.2533 151.351 62.32C152.231 63.3867 152.671 64.5467 152.671 65.8V79.4C152.671 79.5867 152.617 79.7333 152.511 79.84C152.404 79.9467 152.257 80 152.071 80H145.751C145.564 80 145.417 79.9467 145.311 79.84C145.204 79.7333 145.151 79.5867 145.151 79.4V78C145.151 77.8933 145.124 77.84 145.071 77.84C145.044 77.8133 145.004 77.84 144.951 77.92C144.497 78.7467 143.871 79.36 143.071 79.76C142.271 80.1333 141.217 80.32 139.911 80.32C137.724 80.32 136.004 79.8267 134.751 78.84C133.497 77.8267 132.871 76.36 132.871 74.44C132.871 72.4133 133.577 70.8533 134.991 69.76C136.431 68.6667 138.511 68.12 141.231 68.12H144.951C145.084 68.12 145.151 68.0533 145.151 67.92V67.2C145.151 66.64 144.937 66.1867 144.511 65.84C144.111 65.4933 143.564 65.32 142.871 65.32C142.391 65.32 141.964 65.4 141.591 65.56C141.217 65.72 140.951 65.9333 140.791 66.2C140.684 66.3867 140.577 66.52 140.471 66.6C140.391 66.6533 140.271 66.6667 140.111 66.64L133.671 65.84C133.297 65.7867 133.111 65.6267 133.111 65.36C133.217 64.16 133.697 63.0667 134.551 62.08C135.404 61.0933 136.537 60.32 137.951 59.76C139.391 59.1733 140.991 58.88 142.751 58.88ZM142.231 75.12C143.084 75.12 143.777 74.8933 144.311 74.44C144.871 73.9867 145.151 73.3733 145.151 72.6V72.08C145.151 71.9467 145.084 71.88 144.951 71.88H142.951C141.271 71.88 140.431 72.4267 140.431 73.52C140.431 74 140.577 74.3867 140.871 74.68C141.191 74.9733 141.644 75.12 142.231 75.12ZM165.272 80.32C163.006 80.32 161.032 79.7733 159.352 78.68C157.672 77.56 156.446 76.0133 155.672 74.04C155.139 72.68 154.872 71.16 154.872 69.48C154.872 67.8267 155.139 66.32 155.672 64.96C156.419 63.0667 157.646 61.5867 159.352 60.52C161.059 59.4267 163.032 58.88 165.272 58.88C167.539 58.88 169.539 59.4533 171.272 60.6C173.032 61.72 174.219 63.1333 174.832 64.84C175.019 65.32 175.139 65.8267 175.192 66.36V66.48C175.192 66.7467 175.019 66.92 174.672 67L168.472 68H168.352C168.006 68 167.819 67.8267 167.792 67.48L167.632 66.92C167.499 66.4667 167.206 66.0933 166.752 65.8C166.326 65.48 165.819 65.32 165.232 65.32C164.166 65.32 163.406 65.8 162.952 66.76C162.632 67.4267 162.472 68.3467 162.472 69.52C162.472 70.6133 162.619 71.5333 162.912 72.28C163.366 73.3467 164.139 73.88 165.232 73.88C166.406 73.88 167.206 73.2667 167.632 72.04L167.672 71.88C167.752 71.4267 167.979 71.24 168.352 71.32L174.592 72.36C174.939 72.44 175.112 72.6267 175.112 72.92C175.112 73.24 175.019 73.68 174.832 74.24C174.139 76.1867 172.926 77.6933 171.192 78.76C169.486 79.8 167.512 80.32 165.272 80.32ZM190.865 64.6C190.865 64.7867 190.812 64.9333 190.705 65.04C190.599 65.1467 190.452 65.2 190.265 65.2H186.945C186.812 65.2 186.745 65.2667 186.745 65.4V71.68C186.745 73.0133 187.225 73.68 188.185 73.68H189.665C189.852 73.68 189.999 73.7333 190.105 73.84C190.212 73.9467 190.265 74.0933 190.265 74.28V79.4C190.265 79.7733 190.065 79.9867 189.665 80.04C188.625 80.12 187.625 80.16 186.665 80.16C184.239 80.16 182.452 79.7867 181.305 79.04C180.159 78.2933 179.572 76.88 179.545 74.8V65.4C179.545 65.2667 179.479 65.2 179.345 65.2H177.185C176.999 65.2 176.852 65.1467 176.745 65.04C176.639 64.9333 176.585 64.7867 176.585 64.6V59.8C176.585 59.6133 176.639 59.4667 176.745 59.36C176.852 59.2533 176.999 59.2 177.185 59.2H179.345C179.479 59.2 179.545 59.1333 179.545 59V54.2C179.545 54.0133 179.599 53.8667 179.705 53.76C179.812 53.6533 179.959 53.6 180.145 53.6H186.145C186.332 53.6 186.479 53.6533 186.585 53.76C186.692 53.8667 186.745 54.0133 186.745 54.2V59C186.745 59.1333 186.812 59.2 186.945 59.2H190.265C190.452 59.2 190.599 59.2533 190.705 59.36C190.812 59.4667 190.865 59.6133 190.865 59.8V64.6ZM196.69 57.8C195.597 57.8 194.69 57.4533 193.97 56.76C193.277 56.04 192.93 55.1333 192.93 54.04C192.93 52.92 193.277 52.0133 193.97 51.32C194.69 50.6267 195.597 50.28 196.69 50.28C197.784 50.28 198.677 50.6267 199.37 51.32C200.09 52.0133 200.45 52.92 200.45 54.04C200.45 55.1067 200.09 56 199.37 56.72C198.677 57.44 197.784 57.8 196.69 57.8ZM193.49 80C193.304 80 193.157 79.9467 193.05 79.84C192.944 79.7333 192.89 79.5867 192.89 79.4V59.8C192.89 59.6133 192.944 59.4667 193.05 59.36C193.157 59.2533 193.304 59.2 193.49 59.2H199.81C199.997 59.2 200.144 59.2533 200.25 59.36C200.357 59.4667 200.41 59.6133 200.41 59.8V79.4C200.41 79.5867 200.357 79.7333 200.25 79.84C200.144 79.9467 199.997 80 199.81 80H193.49ZM212.887 80.32C210.353 80.32 208.207 79.64 206.447 78.28C204.713 76.92 203.567 75.08 203.007 72.76C202.74 71.8 202.607 70.7333 202.607 69.56C202.607 68.2533 202.767 67.0667 203.087 66C203.727 63.7867 204.9 62.0533 206.607 60.8C208.34 59.52 210.447 58.88 212.927 58.88C215.407 58.88 217.487 59.52 219.167 60.8C220.873 62.0533 222.047 63.76 222.687 65.92C223.007 67.04 223.167 68.2267 223.167 69.48C223.167 70.4933 223.06 71.5067 222.847 72.52C222.287 74.92 221.127 76.8267 219.367 78.24C217.633 79.6267 215.473 80.32 212.887 80.32ZM212.887 73.88C213.58 73.88 214.14 73.6533 214.567 73.2C214.993 72.72 215.287 72.0933 215.447 71.32C215.553 70.8133 215.607 70.2133 215.607 69.52C215.607 68.9067 215.54 68.2933 215.407 67.68C215.007 66.1067 214.167 65.32 212.887 65.32C211.553 65.32 210.713 66.1067 210.367 67.68C210.233 68.1333 210.167 68.7467 210.167 69.52C210.167 70.2133 210.22 70.8133 210.327 71.32C210.727 73.0267 211.58 73.88 212.887 73.88ZM237.831 58.88C239.165 58.88 240.365 59.1733 241.431 59.76C242.498 60.3467 243.338 61.2133 243.951 62.36C244.591 63.48 244.911 64.8133 244.911 66.36V79.4C244.911 79.5867 244.858 79.7333 244.751 79.84C244.645 79.9467 244.498 80 244.311 80H237.991C237.805 80 237.658 79.9467 237.551 79.84C237.445 79.7333 237.391 79.5867 237.391 79.4V68C237.391 67.2 237.178 66.56 236.751 66.08C236.351 65.5733 235.818 65.32 235.151 65.32C234.458 65.32 233.898 65.5733 233.471 66.08C233.071 66.56 232.871 67.2 232.871 68V79.4C232.871 79.5867 232.818 79.7333 232.711 79.84C232.605 79.9467 232.458 80 232.271 80H225.951C225.765 80 225.618 79.9467 225.511 79.84C225.405 79.7333 225.351 79.5867 225.351 79.4V59.8C225.351 59.6133 225.405 59.4667 225.511 59.36C225.618 59.2533 225.765 59.2 225.951 59.2H232.271C232.458 59.2 232.605 59.2533 232.711 59.36C232.818 59.4667 232.871 59.6133 232.871 59.8V61.24C232.871 61.3467 232.898 61.4133 232.951 61.44C233.005 61.4667 233.045 61.44 233.071 61.36C234.085 59.7067 235.671 58.88 237.831 58.88Z" fill="white"/>
</svg>
