<svg width="372" height="38" viewBox="0 0 372 38" fill="none" xmlns="http://www.w3.org/2000/svg">
<path d="M4.12 7.8C3.02667 7.8 2.12 7.45333 1.4 6.76C0.706667 6.04 0.36 5.13333 0.36 4.04C0.36 2.92 0.706667 2.01333 1.4 1.32C2.12 0.626666 3.02667 0.279999 4.12 0.279999C5.21333 0.279999 6.10667 0.626666 6.8 1.32C7.52 2.01333 7.88 2.92 7.88 4.04C7.88 5.10667 7.52 6 6.8 6.72C6.10667 7.44 5.21333 7.8 4.12 7.8ZM0.92 30C0.733333 30 0.586667 29.9467 0.48 29.84C0.373333 29.7333 0.32 29.5867 0.32 29.4V9.8C0.32 9.61333 0.373333 9.46667 0.48 9.36C0.586667 9.25333 0.733333 9.2 0.92 9.2H7.24C7.42667 9.2 7.57333 9.25333 7.68 9.36C7.78667 9.46667 7.84 9.61333 7.84 9.8V29.4C7.84 29.5867 7.78667 29.7333 7.68 29.84C7.57333 29.9467 7.42667 30 7.24 30H0.92ZM22.9563 8.88C24.2896 8.88 25.4896 9.17333 26.5563 9.76C27.6229 10.3467 28.4629 11.2133 29.0763 12.36C29.7163 13.48 30.0363 14.8133 30.0363 16.36V29.4C30.0363 29.5867 29.9829 29.7333 29.8763 29.84C29.7696 29.9467 29.6229 30 29.4363 30H23.1163C22.9296 30 22.7829 29.9467 22.6763 29.84C22.5696 29.7333 22.5163 29.5867 22.5163 29.4V18C22.5163 17.2 22.3029 16.56 21.8763 16.08C21.4763 15.5733 20.9429 15.32 20.2763 15.32C19.5829 15.32 19.0229 15.5733 18.5963 16.08C18.1963 16.56 17.9963 17.2 17.9963 18V29.4C17.9963 29.5867 17.9429 29.7333 17.8363 29.84C17.7296 29.9467 17.5829 30 17.3963 30H11.0763C10.8896 30 10.7429 29.9467 10.6363 29.84C10.5296 29.7333 10.4762 29.5867 10.4762 29.4V9.8C10.4762 9.61333 10.5296 9.46667 10.6363 9.36C10.7429 9.25333 10.8896 9.2 11.0763 9.2H17.3963C17.5829 9.2 17.7296 9.25333 17.8363 9.36C17.9429 9.46667 17.9963 9.61333 17.9963 9.8V11.24C17.9963 11.3467 18.0229 11.4133 18.0763 11.44C18.1296 11.4667 18.1696 11.44 18.1963 11.36C19.2096 9.70667 20.7963 8.88 22.9563 8.88ZM41.8666 30.32C38.8532 30.32 36.4666 29.7333 34.7066 28.56C32.9732 27.3867 32.1066 25.8267 32.1066 23.88V23.52C32.1066 23.3333 32.1599 23.1867 32.2666 23.08C32.3732 22.9733 32.5199 22.92 32.7066 22.92H38.7066C39.1066 22.92 39.3066 23.0667 39.3066 23.36C39.3066 23.7867 39.5332 24.1333 39.9866 24.4C40.4666 24.6667 41.0799 24.8 41.8266 24.8C42.4132 24.8 42.8799 24.72 43.2266 24.56C43.5999 24.3733 43.7866 24.12 43.7866 23.8C43.7866 23.4267 43.5732 23.1733 43.1466 23.04C42.7199 22.88 41.9599 22.7067 40.8666 22.52C39.8532 22.3867 38.9466 22.2267 38.1466 22.04C37.3466 21.8533 36.5732 21.5733 35.8266 21.2C33.5332 20.08 32.3866 18.32 32.3866 15.92C32.3866 13.76 33.2266 12.0533 34.9066 10.8C36.5866 9.52 38.7999 8.88 41.5466 8.88C43.4132 8.88 45.0399 9.18667 46.4266 9.8C47.8399 10.3867 48.9332 11.2267 49.7066 12.32C50.4799 13.4133 50.8666 14.68 50.8666 16.12C50.8666 16.4133 50.6666 16.56 50.2666 16.56H44.4666C44.0666 16.56 43.8666 16.4133 43.8666 16.12C43.8666 15.6667 43.6666 15.32 43.2666 15.08C42.8666 14.8133 42.3332 14.68 41.6666 14.68C41.0532 14.68 40.5466 14.7867 40.1466 15C39.7732 15.1867 39.5866 15.4533 39.5866 15.8C39.5866 16.2267 39.8399 16.52 40.3466 16.68C40.8532 16.84 41.6666 17 42.7866 17.16C42.9199 17.1867 43.4266 17.2667 44.3066 17.4C45.2132 17.5333 46.0799 17.7467 46.9066 18.04C48.3466 18.5467 49.4399 19.2533 50.1866 20.16C50.9599 21.04 51.3466 22.2 51.3466 23.64C51.3466 25.8267 50.4932 27.4933 48.7866 28.64C47.0799 29.76 44.7732 30.32 41.8666 30.32ZM57.0497 7.8C55.9564 7.8 55.0497 7.45333 54.3297 6.76C53.6364 6.04 53.2897 5.13333 53.2897 4.04C53.2897 2.92 53.6364 2.01333 54.3297 1.32C55.0497 0.626666 55.9564 0.279999 57.0497 0.279999C58.143 0.279999 59.0364 0.626666 59.7297 1.32C60.4497 2.01333 60.8097 2.92 60.8097 4.04C60.8097 5.10667 60.4497 6 59.7297 6.72C59.0364 7.44 58.143 7.8 57.0497 7.8ZM53.8497 30C53.663 30 53.5164 29.9467 53.4097 29.84C53.303 29.7333 53.2497 29.5867 53.2497 29.4V9.8C53.2497 9.61333 53.303 9.46667 53.4097 9.36C53.5164 9.25333 53.663 9.2 53.8497 9.2H60.1697C60.3564 9.2 60.503 9.25333 60.6097 9.36C60.7164 9.46667 60.7697 9.61333 60.7697 9.8V29.4C60.7697 29.5867 60.7164 29.7333 60.6097 29.84C60.503 29.9467 60.3564 30 60.1697 30H53.8497ZM76.0059 9.8C76.0059 9.61333 76.0593 9.46667 76.1659 9.36C76.2726 9.25333 76.4193 9.2 76.6059 9.2H82.9259C83.1126 9.2 83.2593 9.25333 83.3659 9.36C83.4726 9.46667 83.5259 9.61333 83.5259 9.8V27.28C83.5259 31.0933 82.4193 33.8 80.2059 35.4C78.0193 37.0267 75.2593 37.84 71.9259 37.84C70.4326 37.84 69.0326 37.72 67.7259 37.48C67.3793 37.4 67.2059 37.1733 67.2059 36.8L67.4459 31.4C67.4459 30.9467 67.6859 30.7867 68.1659 30.92C69.2859 31.2133 70.3393 31.36 71.3259 31.36C72.6059 31.36 73.6593 31.0933 74.4859 30.56C75.3126 30.0267 75.8059 29.2133 75.9659 28.12C75.9926 28.0133 75.9659 27.9467 75.8859 27.92C75.8326 27.8933 75.7659 27.92 75.6859 28C74.7793 28.8533 73.4726 29.28 71.7659 29.28C67.4993 29.28 64.7793 27.5467 63.6059 24.08C63.1526 22.7467 62.9259 21.1867 62.9259 19.4C62.9259 17.4267 63.2059 15.7467 63.7659 14.36C64.4059 12.68 65.4059 11.3467 66.7659 10.36C68.1526 9.37333 69.7393 8.88 71.5259 8.88C73.3659 8.88 74.7793 9.44 75.7659 10.56C75.8193 10.6133 75.8726 10.64 75.9259 10.64C75.9793 10.6133 76.0059 10.56 76.0059 10.48V9.8ZM75.6059 22.12C75.8726 21.4267 76.0059 20.5067 76.0059 19.36C76.0059 18.2933 75.8593 17.4267 75.5659 16.76C75.1126 15.8 74.3526 15.32 73.2859 15.32C72.3526 15.32 71.6459 15.7867 71.1659 16.72C70.7393 17.4667 70.5259 18.3867 70.5259 19.48C70.5259 20.5467 70.6993 21.4133 71.0459 22.08C71.5259 23.0133 72.2993 23.48 73.3659 23.48C74.4326 23.48 75.1793 23.0267 75.6059 22.12ZM98.6594 8.88C99.9927 8.88 101.193 9.17333 102.259 9.76C103.326 10.3467 104.166 11.2133 104.779 12.36C105.419 13.48 105.739 14.8133 105.739 16.36V29.4C105.739 29.5867 105.686 29.7333 105.579 29.84C105.473 29.9467 105.326 30 105.139 30H98.8194C98.6327 30 98.486 29.9467 98.3794 29.84C98.2727 29.7333 98.2194 29.5867 98.2194 29.4V18C98.2194 17.2 98.006 16.56 97.5794 16.08C97.1794 15.5733 96.646 15.32 95.9794 15.32C95.286 15.32 94.726 15.5733 94.2994 16.08C93.8994 16.56 93.6994 17.2 93.6994 18V29.4C93.6994 29.5867 93.646 29.7333 93.5394 29.84C93.4327 29.9467 93.286 30 93.0994 30H86.7794C86.5927 30 86.446 29.9467 86.3394 29.84C86.2327 29.7333 86.1794 29.5867 86.1794 29.4V2.6C86.1794 2.41333 86.2327 2.26667 86.3394 2.16C86.446 2.05333 86.5927 2 86.7794 2H93.0994C93.286 2 93.4327 2.05333 93.5394 2.16C93.646 2.26667 93.6994 2.41333 93.6994 2.6V11.24C93.6994 11.3467 93.726 11.4133 93.7794 11.44C93.8327 11.4667 93.8727 11.44 93.8994 11.36C94.9127 9.70667 96.4994 8.88 98.6594 8.88ZM121.85 14.6C121.85 14.7867 121.796 14.9333 121.69 15.04C121.583 15.1467 121.436 15.2 121.25 15.2H117.93C117.796 15.2 117.73 15.2667 117.73 15.4V21.68C117.73 23.0133 118.21 23.68 119.17 23.68H120.65C120.836 23.68 120.983 23.7333 121.09 23.84C121.196 23.9467 121.25 24.0933 121.25 24.28V29.4C121.25 29.7733 121.05 29.9867 120.65 30.04C119.61 30.12 118.61 30.16 117.65 30.16C115.223 30.16 113.436 29.7867 112.29 29.04C111.143 28.2933 110.556 26.88 110.53 24.8V15.4C110.53 15.2667 110.463 15.2 110.33 15.2H108.17C107.983 15.2 107.836 15.1467 107.73 15.04C107.623 14.9333 107.57 14.7867 107.57 14.6V9.8C107.57 9.61333 107.623 9.46667 107.73 9.36C107.836 9.25333 107.983 9.2 108.17 9.2H110.33C110.463 9.2 110.53 9.13333 110.53 9V4.2C110.53 4.01333 110.583 3.86667 110.69 3.76C110.796 3.65333 110.943 3.6 111.13 3.6H117.13C117.316 3.6 117.463 3.65333 117.57 3.76C117.676 3.86667 117.73 4.01333 117.73 4.2V9C117.73 9.13333 117.796 9.2 117.93 9.2H121.25C121.436 9.2 121.583 9.25333 121.69 9.36C121.796 9.46667 121.85 9.61333 121.85 9.8V14.6ZM156.13 15.12C156.317 15.12 156.464 15.1733 156.57 15.28C156.677 15.3867 156.73 15.5333 156.73 15.72V20.92C156.73 21.1067 156.677 21.2533 156.57 21.36C156.464 21.4667 156.317 21.52 156.13 21.52H151.49C151.357 21.52 151.29 21.5867 151.29 21.72V26.36C151.29 26.5467 151.237 26.6933 151.13 26.8C151.024 26.9067 150.877 26.96 150.69 26.96H145.49C145.304 26.96 145.157 26.9067 145.05 26.8C144.944 26.6933 144.89 26.5467 144.89 26.36V21.72C144.89 21.5867 144.824 21.52 144.69 21.52H140.05C139.864 21.52 139.717 21.4667 139.61 21.36C139.504 21.2533 139.45 21.1067 139.45 20.92V15.72C139.45 15.5333 139.504 15.3867 139.61 15.28C139.717 15.1733 139.864 15.12 140.05 15.12H144.69C144.824 15.12 144.89 15.0533 144.89 14.92V10.28C144.89 10.0933 144.944 9.94667 145.05 9.84C145.157 9.73333 145.304 9.68 145.49 9.68H150.69C150.877 9.68 151.024 9.73333 151.13 9.84C151.237 9.94667 151.29 10.0933 151.29 10.28V14.92C151.29 15.0533 151.357 15.12 151.49 15.12H156.13ZM178.729 7.8C177.636 7.8 176.729 7.45333 176.009 6.76C175.316 6.04 174.969 5.13333 174.969 4.04C174.969 2.92 175.316 2.01333 176.009 1.32C176.729 0.626666 177.636 0.279999 178.729 0.279999C179.823 0.279999 180.716 0.626666 181.409 1.32C182.129 2.01333 182.489 2.92 182.489 4.04C182.489 5.10667 182.129 6 181.409 6.72C180.716 7.44 179.823 7.8 178.729 7.8ZM175.529 30C175.343 30 175.196 29.9467 175.089 29.84C174.983 29.7333 174.929 29.5867 174.929 29.4V9.8C174.929 9.61333 174.983 9.46667 175.089 9.36C175.196 9.25333 175.343 9.2 175.529 9.2H181.849C182.036 9.2 182.183 9.25333 182.289 9.36C182.396 9.46667 182.449 9.61333 182.449 9.8V29.4C182.449 29.5867 182.396 29.7333 182.289 29.84C182.183 29.9467 182.036 30 181.849 30H175.529ZM197.566 8.88C198.899 8.88 200.099 9.17333 201.166 9.76C202.232 10.3467 203.072 11.2133 203.686 12.36C204.326 13.48 204.646 14.8133 204.646 16.36V29.4C204.646 29.5867 204.592 29.7333 204.486 29.84C204.379 29.9467 204.232 30 204.046 30H197.726C197.539 30 197.392 29.9467 197.286 29.84C197.179 29.7333 197.126 29.5867 197.126 29.4V18C197.126 17.2 196.912 16.56 196.486 16.08C196.086 15.5733 195.552 15.32 194.886 15.32C194.192 15.32 193.632 15.5733 193.206 16.08C192.806 16.56 192.606 17.2 192.606 18V29.4C192.606 29.5867 192.552 29.7333 192.446 29.84C192.339 29.9467 192.192 30 192.006 30H185.686C185.499 30 185.352 29.9467 185.246 29.84C185.139 29.7333 185.086 29.5867 185.086 29.4V9.8C185.086 9.61333 185.139 9.46667 185.246 9.36C185.352 9.25333 185.499 9.2 185.686 9.2H192.006C192.192 9.2 192.339 9.25333 192.446 9.36C192.552 9.46667 192.606 9.61333 192.606 9.8V11.24C192.606 11.3467 192.632 11.4133 192.686 11.44C192.739 11.4667 192.779 11.44 192.806 11.36C193.819 9.70667 195.406 8.88 197.566 8.88ZM220.756 14.6C220.756 14.7867 220.703 14.9333 220.596 15.04C220.489 15.1467 220.343 15.2 220.156 15.2H216.836C216.703 15.2 216.636 15.2667 216.636 15.4V21.68C216.636 23.0133 217.116 23.68 218.076 23.68H219.556C219.743 23.68 219.889 23.7333 219.996 23.84C220.103 23.9467 220.156 24.0933 220.156 24.28V29.4C220.156 29.7733 219.956 29.9867 219.556 30.04C218.516 30.12 217.516 30.16 216.556 30.16C214.129 30.16 212.343 29.7867 211.196 29.04C210.049 28.2933 209.463 26.88 209.436 24.8V15.4C209.436 15.2667 209.369 15.2 209.236 15.2H207.076C206.889 15.2 206.743 15.1467 206.636 15.04C206.529 14.9333 206.476 14.7867 206.476 14.6V9.8C206.476 9.61333 206.529 9.46667 206.636 9.36C206.743 9.25333 206.889 9.2 207.076 9.2H209.236C209.369 9.2 209.436 9.13333 209.436 9V4.2C209.436 4.01333 209.489 3.86667 209.596 3.76C209.703 3.65333 209.849 3.6 210.036 3.6H216.036C216.223 3.6 216.369 3.65333 216.476 3.76C216.583 3.86667 216.636 4.01333 216.636 4.2V9C216.636 9.13333 216.703 9.2 216.836 9.2H220.156C220.343 9.2 220.489 9.25333 220.596 9.36C220.703 9.46667 220.756 9.61333 220.756 9.8V14.6ZM242.663 18.12C242.743 18.7067 242.783 19.3067 242.783 19.92C242.783 20.3467 242.769 20.68 242.743 20.92C242.743 21.2933 242.543 21.48 242.143 21.48H230.143C230.036 21.48 229.983 21.5333 229.983 21.64C229.983 21.88 230.089 22.16 230.303 22.48C230.569 22.9333 231.036 23.32 231.703 23.64C232.396 23.9333 233.169 24.08 234.023 24.08C234.743 24.08 235.409 23.9733 236.023 23.76C236.636 23.5467 237.156 23.24 237.583 22.84C237.716 22.7333 237.849 22.68 237.983 22.68C238.169 22.68 238.316 22.76 238.423 22.92L241.463 26.8C241.569 26.9333 241.623 27.08 241.623 27.24C241.623 27.4 241.556 27.5333 241.423 27.64C240.489 28.5467 239.329 29.2267 237.943 29.68C236.556 30.1067 235.063 30.32 233.463 30.32C230.983 30.32 228.863 29.8 227.103 28.76C225.343 27.72 224.063 26.24 223.263 24.32C222.676 22.9333 222.383 21.44 222.383 19.84C222.383 18.16 222.623 16.6667 223.103 15.36C223.823 13.3333 225.009 11.7467 226.663 10.6C228.316 9.45333 230.263 8.88 232.503 8.88C234.209 8.88 235.783 9.28 237.223 10.08C238.689 10.88 239.889 11.9867 240.823 13.4C241.783 14.7867 242.396 16.36 242.663 18.12ZM232.463 15.32C231.369 15.32 230.609 15.8533 230.183 16.92L230.023 17.36C229.996 17.44 230.009 17.5067 230.063 17.56C230.116 17.5867 230.169 17.6 230.223 17.6H234.783C234.889 17.6 234.943 17.5467 234.943 17.44C234.943 17.3333 234.903 17.16 234.823 16.92C234.689 16.4133 234.409 16.0267 233.983 15.76C233.583 15.4667 233.076 15.32 232.463 15.32ZM256.453 8.92C257.36 8.92 258.08 9.09333 258.613 9.44C258.853 9.57333 258.946 9.82667 258.893 10.2L257.933 16.36C257.906 16.5733 257.826 16.7067 257.693 16.76C257.586 16.8133 257.426 16.8133 257.213 16.76C256.733 16.6533 256.306 16.6 255.933 16.6C255.533 16.6 255.16 16.64 254.813 16.72C254.12 16.8533 253.52 17.1467 253.013 17.6C252.533 18.0267 252.293 18.6133 252.293 19.36V29.4C252.293 29.5867 252.24 29.7333 252.133 29.84C252.026 29.9467 251.88 30 251.693 30H245.373C245.186 30 245.04 29.9467 244.933 29.84C244.826 29.7333 244.773 29.5867 244.773 29.4V9.8C244.773 9.61333 244.826 9.46667 244.933 9.36C245.04 9.25333 245.186 9.2 245.373 9.2H251.693C251.88 9.2 252.026 9.25333 252.133 9.36C252.24 9.46667 252.293 9.61333 252.293 9.8V10.76C252.293 10.84 252.32 10.8933 252.373 10.92C252.426 10.9467 252.466 10.9333 252.493 10.88C253.506 9.57333 254.826 8.92 256.453 8.92ZM269.36 8.88C271.173 8.88 272.84 9.18667 274.36 9.8C275.88 10.4133 277.08 11.2533 277.96 12.32C278.84 13.3867 279.28 14.5467 279.28 15.8V29.4C279.28 29.5867 279.227 29.7333 279.12 29.84C279.013 29.9467 278.867 30 278.68 30H272.36C272.173 30 272.027 29.9467 271.92 29.84C271.813 29.7333 271.76 29.5867 271.76 29.4V28C271.76 27.8933 271.733 27.84 271.68 27.84C271.653 27.8133 271.613 27.84 271.56 27.92C271.107 28.7467 270.48 29.36 269.68 29.76C268.88 30.1333 267.827 30.32 266.52 30.32C264.333 30.32 262.613 29.8267 261.36 28.84C260.107 27.8267 259.48 26.36 259.48 24.44C259.48 22.4133 260.187 20.8533 261.6 19.76C263.04 18.6667 265.12 18.12 267.84 18.12H271.56C271.693 18.12 271.76 18.0533 271.76 17.92V17.2C271.76 16.64 271.547 16.1867 271.12 15.84C270.72 15.4933 270.173 15.32 269.48 15.32C269 15.32 268.573 15.4 268.2 15.56C267.827 15.72 267.56 15.9333 267.4 16.2C267.293 16.3867 267.187 16.52 267.08 16.6C267 16.6533 266.88 16.6667 266.72 16.64L260.28 15.84C259.907 15.7867 259.72 15.6267 259.72 15.36C259.827 14.16 260.307 13.0667 261.16 12.08C262.013 11.0933 263.147 10.32 264.56 9.76C266 9.17333 267.6 8.88 269.36 8.88ZM268.84 25.12C269.693 25.12 270.387 24.8933 270.92 24.44C271.48 23.9867 271.76 23.3733 271.76 22.6V22.08C271.76 21.9467 271.693 21.88 271.56 21.88H269.56C267.88 21.88 267.04 22.4267 267.04 23.52C267.04 24 267.187 24.3867 267.48 24.68C267.8 24.9733 268.253 25.12 268.84 25.12ZM291.882 30.32C289.615 30.32 287.642 29.7733 285.962 28.68C284.282 27.56 283.055 26.0133 282.282 24.04C281.748 22.68 281.482 21.16 281.482 19.48C281.482 17.8267 281.748 16.32 282.282 14.96C283.028 13.0667 284.255 11.5867 285.962 10.52C287.668 9.42667 289.642 8.88 291.882 8.88C294.148 8.88 296.148 9.45333 297.882 10.6C299.642 11.72 300.828 13.1333 301.442 14.84C301.628 15.32 301.748 15.8267 301.802 16.36V16.48C301.802 16.7467 301.628 16.92 301.282 17L295.082 18H294.962C294.615 18 294.428 17.8267 294.402 17.48L294.242 16.92C294.108 16.4667 293.815 16.0933 293.362 15.8C292.935 15.48 292.428 15.32 291.842 15.32C290.775 15.32 290.015 15.8 289.562 16.76C289.242 17.4267 289.082 18.3467 289.082 19.52C289.082 20.6133 289.228 21.5333 289.522 22.28C289.975 23.3467 290.748 23.88 291.842 23.88C293.015 23.88 293.815 23.2667 294.242 22.04L294.282 21.88C294.362 21.4267 294.588 21.24 294.962 21.32L301.202 22.36C301.548 22.44 301.722 22.6267 301.722 22.92C301.722 23.24 301.628 23.68 301.442 24.24C300.748 26.1867 299.535 27.6933 297.802 28.76C296.095 29.8 294.122 30.32 291.882 30.32ZM317.475 14.6C317.475 14.7867 317.421 14.9333 317.315 15.04C317.208 15.1467 317.061 15.2 316.875 15.2H313.555C313.421 15.2 313.355 15.2667 313.355 15.4V21.68C313.355 23.0133 313.835 23.68 314.795 23.68H316.275C316.461 23.68 316.608 23.7333 316.715 23.84C316.821 23.9467 316.875 24.0933 316.875 24.28V29.4C316.875 29.7733 316.675 29.9867 316.275 30.04C315.235 30.12 314.235 30.16 313.275 30.16C310.848 30.16 309.061 29.7867 307.915 29.04C306.768 28.2933 306.181 26.88 306.155 24.8V15.4C306.155 15.2667 306.088 15.2 305.955 15.2H303.795C303.608 15.2 303.461 15.1467 303.355 15.04C303.248 14.9333 303.195 14.7867 303.195 14.6V9.8C303.195 9.61333 303.248 9.46667 303.355 9.36C303.461 9.25333 303.608 9.2 303.795 9.2H305.955C306.088 9.2 306.155 9.13333 306.155 9V4.2C306.155 4.01333 306.208 3.86667 306.315 3.76C306.421 3.65333 306.568 3.6 306.755 3.6H312.755C312.941 3.6 313.088 3.65333 313.195 3.76C313.301 3.86667 313.355 4.01333 313.355 4.2V9C313.355 9.13333 313.421 9.2 313.555 9.2H316.875C317.061 9.2 317.208 9.25333 317.315 9.36C317.421 9.46667 317.475 9.61333 317.475 9.8V14.6ZM323.3 7.8C322.206 7.8 321.3 7.45333 320.58 6.76C319.886 6.04 319.54 5.13333 319.54 4.04C319.54 2.92 319.886 2.01333 320.58 1.32C321.3 0.626666 322.206 0.279999 323.3 0.279999C324.393 0.279999 325.286 0.626666 325.98 1.32C326.7 2.01333 327.06 2.92 327.06 4.04C327.06 5.10667 326.7 6 325.98 6.72C325.286 7.44 324.393 7.8 323.3 7.8ZM320.1 30C319.913 30 319.766 29.9467 319.66 29.84C319.553 29.7333 319.5 29.5867 319.5 29.4V9.8C319.5 9.61333 319.553 9.46667 319.66 9.36C319.766 9.25333 319.913 9.2 320.1 9.2H326.42C326.606 9.2 326.753 9.25333 326.86 9.36C326.966 9.46667 327.02 9.61333 327.02 9.8V29.4C327.02 29.5867 326.966 29.7333 326.86 29.84C326.753 29.9467 326.606 30 326.42 30H320.1ZM339.496 30.32C336.963 30.32 334.816 29.64 333.056 28.28C331.323 26.92 330.176 25.08 329.616 22.76C329.349 21.8 329.216 20.7333 329.216 19.56C329.216 18.2533 329.376 17.0667 329.696 16C330.336 13.7867 331.509 12.0533 333.216 10.8C334.949 9.52 337.056 8.88 339.536 8.88C342.016 8.88 344.096 9.52 345.776 10.8C347.483 12.0533 348.656 13.76 349.296 15.92C349.616 17.04 349.776 18.2267 349.776 19.48C349.776 20.4933 349.669 21.5067 349.456 22.52C348.896 24.92 347.736 26.8267 345.976 28.24C344.243 29.6267 342.083 30.32 339.496 30.32ZM339.496 23.88C340.189 23.88 340.749 23.6533 341.176 23.2C341.603 22.72 341.896 22.0933 342.056 21.32C342.163 20.8133 342.216 20.2133 342.216 19.52C342.216 18.9067 342.149 18.2933 342.016 17.68C341.616 16.1067 340.776 15.32 339.496 15.32C338.163 15.32 337.323 16.1067 336.976 17.68C336.843 18.1333 336.776 18.7467 336.776 19.52C336.776 20.2133 336.829 20.8133 336.936 21.32C337.336 23.0267 338.189 23.88 339.496 23.88ZM364.441 8.88C365.774 8.88 366.974 9.17333 368.041 9.76C369.107 10.3467 369.947 11.2133 370.561 12.36C371.201 13.48 371.521 14.8133 371.521 16.36V29.4C371.521 29.5867 371.467 29.7333 371.361 29.84C371.254 29.9467 371.107 30 370.921 30H364.601C364.414 30 364.267 29.9467 364.161 29.84C364.054 29.7333 364.001 29.5867 364.001 29.4V18C364.001 17.2 363.787 16.56 363.361 16.08C362.961 15.5733 362.427 15.32 361.761 15.32C361.067 15.32 360.507 15.5733 360.081 16.08C359.681 16.56 359.481 17.2 359.481 18V29.4C359.481 29.5867 359.427 29.7333 359.321 29.84C359.214 29.9467 359.067 30 358.881 30H352.561C352.374 30 352.227 29.9467 352.121 29.84C352.014 29.7333 351.961 29.5867 351.961 29.4V9.8C351.961 9.61333 352.014 9.46667 352.121 9.36C352.227 9.25333 352.374 9.2 352.561 9.2H358.881C359.067 9.2 359.214 9.25333 359.321 9.36C359.427 9.46667 359.481 9.61333 359.481 9.8V11.24C359.481 11.3467 359.507 11.4133 359.561 11.44C359.614 11.4667 359.654 11.44 359.681 11.36C360.694 9.70667 362.281 8.88 364.441 8.88Z" fill="white"/>
</svg>
