<svg width="474" height="146" viewBox="0 0 474 146" fill="none" xmlns="http://www.w3.org/2000/svg">
<g clip-path="url(#clip0_1_2)">
<path d="M81.7808 121C81.2208 121 80.7808 120.84 80.4608 120.52C80.1408 120.2 79.9808 119.76 79.9808 119.2V38.8C79.9808 38.24 80.1408 37.8 80.4608 37.48C80.7808 37.16 81.2208 37 81.7808 37H100.741C101.301 37 101.741 37.16 102.061 37.48C102.381 37.8 102.541 38.24 102.541 38.8V101.08C102.541 101.48 102.741 101.68 103.141 101.68H140.221C140.781 101.68 141.221 101.84 141.541 102.16C141.861 102.48 142.021 102.92 142.021 103.48V119.2C142.021 119.76 141.861 120.2 141.541 120.52C141.221 120.84 140.781 121 140.221 121H81.7808ZM253.047 121C251.927 121 251.247 120.48 251.007 119.44L248.367 110.08C248.207 109.76 248.007 109.6 247.767 109.6H222.327C222.087 109.6 221.887 109.76 221.727 110.08L219.087 119.44C218.847 120.48 218.167 121 217.047 121H196.527C195.087 121 194.567 120.32 194.967 118.96L220.287 38.44C220.607 37.48 221.287 37 222.327 37H247.767C248.807 37 249.487 37.48 249.807 38.44L275.127 118.96C275.207 119.12 275.247 119.36 275.247 119.68C275.247 120.56 274.687 121 273.567 121H253.047ZM227.007 91.6C226.927 92.08 227.087 92.32 227.487 92.32H242.487C242.967 92.32 243.127 92.08 242.967 91.6L235.287 64.72C235.207 64.48 235.087 64.36 234.927 64.36C234.767 64.36 234.647 64.48 234.567 64.72L227.007 91.6ZM385.271 77.32C384.951 77.56 384.951 77.8 385.271 78.04C388.871 80.04 391.511 82.6 393.191 85.72C394.871 88.84 395.711 92.6 395.711 97C395.711 105.24 392.831 111.32 387.071 115.24C381.311 119.08 373.831 121 364.631 121H332.351C331.791 121 331.351 120.84 331.031 120.52C330.711 120.2 330.551 119.76 330.551 119.2V38.8C330.551 38.24 330.711 37.8 331.031 37.48C331.351 37.16 331.791 37 332.351 37H363.551C373.791 37 381.471 38.84 386.591 42.52C391.791 46.12 394.391 52.2 394.391 60.76C394.391 68.36 391.351 73.88 385.271 77.32ZM353.711 56.32C353.311 56.32 353.111 56.52 353.111 56.92V68.92C353.111 69.32 353.311 69.52 353.711 69.52H363.551C369.391 69.52 372.311 67.32 372.311 62.92C372.311 58.52 369.391 56.32 363.551 56.32H353.711ZM364.631 101.68C370.311 101.68 373.151 99.32 373.151 94.6C373.151 90.12 370.351 87.88 364.751 87.88H353.711C353.311 87.88 353.111 88.08 353.111 88.48V101.08C353.111 101.48 353.311 101.68 353.711 101.68H364.631Z" fill="white" fill-opacity="0.15"/>
<g opacity="0.6">
<path d="M210.334 68.8464C210.493 68.9438 210.591 69.0658 210.626 69.2124C210.661 69.3591 210.63 69.512 210.533 69.6713L207.82 74.1076C207.723 74.2668 207.601 74.3641 207.454 74.3995C207.307 74.4348 207.154 74.4038 206.995 74.3064L203.037 71.8857C202.923 71.8161 202.831 71.8382 202.762 71.952L200.341 75.9105C200.244 76.0697 200.122 76.167 199.975 76.2024C199.828 76.2377 199.675 76.2067 199.516 76.1093L195.08 73.3965C194.921 73.2991 194.823 73.1771 194.788 73.0304C194.753 72.8838 194.784 72.7308 194.881 72.5716L197.302 68.6131C197.371 68.4993 197.349 68.4077 197.235 68.3381L193.277 65.9174C193.118 65.82 193.02 65.698 192.985 65.5514C192.95 65.4047 192.981 65.2518 193.078 65.0925L195.791 60.6562C195.888 60.497 196.01 60.3997 196.157 60.3643C196.304 60.329 196.457 60.36 196.616 60.4574L200.574 62.8781C200.688 62.9477 200.78 62.9256 200.849 62.8118L203.27 58.8533C203.367 58.6941 203.489 58.5968 203.636 58.5614C203.783 58.5261 203.936 58.5571 204.095 58.6545L208.531 61.3673C208.69 61.4647 208.788 61.5867 208.823 61.7334C208.858 61.88 208.827 62.033 208.73 62.1922L206.309 66.1507C206.24 66.2645 206.262 66.3561 206.376 66.4257L210.334 68.8464Z" fill="#A9CAEC"/>
<path d="M15.1912 52.3601C14.3422 53.049 13.4197 53.3511 12.4238 53.2664C11.4317 53.1441 10.5913 52.6585 9.90237 51.8095C9.19669 50.9398 8.89461 50.0173 8.99616 49.042C9.11841 48.05 9.60403 47.2095 10.453 46.5206C11.3021 45.8317 12.2142 45.5381 13.1894 45.6396C14.1854 45.7243 15.0362 46.2016 15.7419 47.0713C16.414 47.8996 16.6973 48.8201 16.5918 49.8329C16.5071 50.8288 16.0402 51.6713 15.1912 52.3601ZM26.694 71.6154C26.5491 71.733 26.4016 71.784 26.2516 71.7684C26.1015 71.7528 25.9677 71.6725 25.8501 71.5275L13.5006 56.3075C13.3829 56.1626 13.3319 56.0151 13.3476 55.865C13.3632 55.715 13.4435 55.5812 13.5884 55.4635L18.4961 51.4814C18.6411 51.3638 18.7886 51.3128 18.9386 51.3285C19.0886 51.3441 19.2225 51.4244 19.3401 51.5693L31.6896 66.7893C31.8072 66.9343 31.8582 67.0818 31.8426 67.2318C31.827 67.3819 31.7467 67.5157 31.6017 67.6333L26.694 71.6154Z" fill="#A9CAEC"/>
<path d="M38.7404 38.151C39.9134 37.5172 41.1086 37.2049 42.326 37.214C43.5433 37.2231 44.6943 37.5863 45.779 38.3035C46.8744 38.9847 47.7898 40.0056 48.525 41.3664L54.7235 52.8389C54.8123 53.0032 54.8351 53.1576 54.7919 53.3021C54.7488 53.4467 54.6451 53.5633 54.4809 53.652L48.9206 56.6562C48.7563 56.745 48.602 56.7678 48.4574 56.7246C48.3129 56.6815 48.1962 56.5778 48.1075 56.4136L42.6885 46.3839C42.3082 45.6801 41.8163 45.2184 41.2127 44.9989C40.62 44.7433 40.0303 44.7739 39.4438 45.0908C38.8338 45.4204 38.4615 45.9095 38.327 46.5581C38.2033 47.1705 38.3315 47.8287 38.7118 48.5325L44.1308 58.5622C44.2195 58.7264 44.2423 58.8808 44.1992 59.0253C44.156 59.1699 44.0524 59.2865 43.8881 59.3753L38.3278 62.3795C38.1636 62.4682 38.0092 62.491 37.8647 62.4479C37.7201 62.4047 37.6035 62.301 37.5147 62.1368L28.1979 44.8928C28.1091 44.7286 28.0863 44.5742 28.1295 44.4296C28.1726 44.2851 28.2763 44.1684 28.4405 44.0797L34.0008 41.0755C34.1651 40.9868 34.3194 40.964 34.464 41.0071C34.6085 41.0502 34.7252 41.1539 34.8139 41.3182L35.4984 42.5851C35.5491 42.6789 35.6043 42.7249 35.6639 42.723C35.7235 42.7211 35.746 42.6786 35.7314 42.5956C35.837 40.6593 36.84 39.1778 38.7404 38.151Z" fill="#A9CAEC"/>
<path d="M70.6292 48.6211C67.7225 49.4154 65.2656 49.4785 63.2585 48.8106C61.2772 48.1356 60.03 46.8592 59.5169 44.9814L59.422 44.6341C59.3728 44.4541 59.3856 44.2985 59.4604 44.1675C59.5352 44.0365 59.6626 43.9464 59.8426 43.8972L65.6305 42.3157C66.0163 42.2103 66.2479 42.299 66.3252 42.582C66.4377 42.9936 66.7477 43.2682 67.2553 43.406C67.7886 43.5367 68.4154 43.5036 69.1357 43.3068C69.7016 43.1522 70.1307 42.952 70.4229 42.7063C70.7338 42.4278 70.8471 42.1343 70.7628 41.8256C70.6644 41.4655 70.3918 41.2773 69.9451 41.2612C69.4913 41.2193 68.7125 41.2524 67.6086 41.3605C66.596 41.499 65.6792 41.5836 64.8583 41.6144C64.0374 41.6452 63.2176 41.579 62.3989 41.4156C59.8915 40.9397 58.3215 39.5442 57.6889 37.2291C57.1195 35.1455 57.48 33.2777 58.7702 31.6259C60.0534 29.9484 62.0198 28.7476 64.6693 28.0236C66.47 27.5316 68.12 27.3987 69.6193 27.6248C71.1373 27.8182 72.4133 28.3403 73.4475 29.1911C74.4817 30.042 75.1885 31.1619 75.5681 32.551C75.6454 32.834 75.4911 33.0282 75.1053 33.1336L69.5104 34.6624C69.1245 34.7678 68.893 34.679 68.8156 34.3961C68.6961 33.9588 68.4118 33.6771 67.9627 33.551C67.5066 33.3992 66.957 33.4112 66.3139 33.5869C65.7222 33.7486 65.2616 33.985 64.932 34.2962C64.621 34.5747 64.5113 34.8811 64.6026 35.2155C64.7151 35.6271 65.0368 35.8433 65.5677 35.8641C66.0986 35.8849 66.9254 35.8248 68.048 35.684C68.1836 35.6746 68.6934 35.6182 69.5775 35.5148C70.4872 35.4045 71.3795 35.3818 72.2542 35.4469C73.7768 35.5561 75.0178 35.9496 75.977 36.6274C76.9549 37.2724 77.6337 38.2895 78.0133 39.6786C78.5896 41.7879 78.2058 43.6206 76.8617 45.1765C75.5106 46.7068 73.4331 47.8549 70.6292 48.6211Z" fill="#A9CAEC"/>
<path d="M87.5831 22.7621C86.4941 22.8591 85.5602 22.5944 84.7815 21.9677C84.027 21.3121 83.6012 20.4398 83.5041 19.3508C83.4046 18.2352 83.6694 17.3013 84.2985 16.5492C84.954 15.7947 85.8264 15.3688 86.9154 15.2718C88.0044 15.1747 88.925 15.4407 89.6771 16.0697C90.4558 16.6964 90.8949 17.5675 90.9944 18.683C91.0891 19.7455 90.8098 20.6673 90.1566 21.4484C89.53 22.2271 88.6721 22.665 87.5831 22.7621ZM86.367 45.1585C86.181 45.1751 86.0302 45.135 85.9145 45.0382C85.7988 44.9414 85.7326 44.8001 85.7161 44.6142L83.9757 25.0916C83.9591 24.9057 83.9992 24.7548 84.096 24.6391C84.1928 24.5234 84.3341 24.4572 84.5201 24.4407L90.8151 23.8795C91.001 23.8629 91.1518 23.903 91.2676 23.9998C91.3833 24.0966 91.4494 24.2379 91.466 24.4238L93.2064 43.9464C93.2229 44.1324 93.1828 44.2832 93.0861 44.3989C92.9893 44.5146 92.8479 44.5808 92.662 44.5973L86.367 45.1585Z" fill="#A9CAEC"/>
<path d="M115.083 25.0596C115.101 24.8738 115.168 24.733 115.285 24.6372C115.401 24.5414 115.552 24.5026 115.738 24.5207L122.028 25.1352C122.214 25.1534 122.355 25.2207 122.451 25.3372C122.546 25.4538 122.585 25.6049 122.567 25.7907L120.868 43.1879C120.497 46.9832 119.132 49.5694 116.774 50.9466C114.439 52.353 111.613 52.8941 108.296 52.57C106.81 52.4249 105.428 52.1693 104.151 51.8034C103.814 51.6901 103.663 51.4476 103.699 51.0761L104.463 45.725C104.507 45.2738 104.762 45.1379 105.227 45.3173C106.313 45.7181 107.347 45.9665 108.329 46.0624C109.603 46.1869 110.677 46.0239 111.552 45.5734C112.426 45.123 112.996 44.3615 113.262 43.2889C113.299 43.1853 113.279 43.1164 113.202 43.0821C113.151 43.0503 113.082 43.0704 112.995 43.1422C112.009 43.9034 110.668 44.201 108.969 44.035C104.722 43.6202 102.184 41.6306 101.353 38.0663C101.032 36.6952 100.958 35.1206 101.131 33.3424C101.323 31.3784 101.765 29.7336 102.457 28.4079C103.258 26.7981 104.383 25.5683 105.832 24.7186C107.308 23.8714 108.935 23.5347 110.713 23.7084C112.545 23.8873 113.897 24.582 114.77 25.7926C114.818 25.8509 114.868 25.8826 114.921 25.8878C114.977 25.8665 115.009 25.816 115.017 25.7363L115.083 25.0596ZM113.487 37.2823C113.82 36.6182 114.042 35.7155 114.153 34.5743C114.257 33.5127 114.195 32.6358 113.968 31.9438C113.61 30.9443 112.901 30.3927 111.839 30.289C110.91 30.1982 110.161 30.594 109.593 31.4762C109.096 32.1779 108.794 33.0728 108.688 34.1609C108.584 35.2225 108.672 36.1019 108.952 36.7992C109.339 37.7747 110.064 38.3144 111.125 38.4181C112.187 38.5218 112.974 38.1432 113.487 37.2823Z" fill="#A9CAEC"/>
<path d="M145.623 31.3948C146.882 31.8325 147.92 32.5035 148.735 33.4078C149.55 34.3121 150.059 35.4065 150.262 36.6909C150.498 37.959 150.363 39.3235 149.855 40.7844L145.575 53.1018C145.513 53.2781 145.415 53.3991 145.279 53.4649C145.143 53.5306 144.987 53.5328 144.811 53.4716L138.841 51.3969C138.665 51.3356 138.544 51.2371 138.478 51.1013C138.412 50.9655 138.41 50.8095 138.471 50.6331L142.214 39.8649C142.476 39.1092 142.485 38.4347 142.239 37.8412C142.028 37.2313 141.607 36.8169 140.977 36.5981C140.323 36.3705 139.71 36.4259 139.141 36.7645C138.606 37.0866 138.207 37.6254 137.944 38.3811L134.202 49.1493C134.14 49.3257 134.042 49.4467 133.906 49.5124C133.77 49.5782 133.614 49.5804 133.438 49.5191L127.468 47.4444C127.292 47.3832 127.171 47.2846 127.105 47.1489C127.039 47.0131 127.037 46.857 127.098 46.6807L135.896 21.3659C135.958 21.1896 136.056 21.0686 136.192 21.0028C136.328 20.9371 136.484 20.9349 136.66 20.9961L142.63 23.0708C142.806 23.1321 142.927 23.2306 142.993 23.3664C143.059 23.5022 143.061 23.6582 142.999 23.8345L140.163 31.9957C140.128 32.0965 140.131 32.1682 140.173 32.2109C140.215 32.2536 140.261 32.2415 140.313 32.1747C141.813 30.9457 143.583 30.6857 145.623 31.3948Z" fill="#A9CAEC"/>
<path d="M171.334 50.78C171.238 50.9399 171.117 51.038 170.97 51.0744C170.824 51.1108 170.671 51.0808 170.511 50.9845L167.666 49.2721C167.552 49.2033 167.461 49.226 167.392 49.3403L164.153 54.7204C163.465 55.8627 163.532 56.6814 164.355 57.1766L165.623 57.94C165.783 58.0362 165.881 58.1576 165.917 58.304C165.954 58.4504 165.924 58.6035 165.827 58.7635L163.186 63.1498C162.994 63.4697 162.713 63.5493 162.342 63.3886C161.41 62.9208 160.533 62.4392 159.71 61.9441C157.631 60.6924 156.293 59.451 155.696 58.2199C155.099 56.9888 155.325 55.4753 156.375 53.6796L161.224 45.6265C161.292 45.5123 161.27 45.4208 161.155 45.352L159.305 44.2379C159.145 44.1416 159.047 44.0203 159.011 43.8739C158.974 43.7275 159.004 43.5743 159.1 43.4144L161.576 39.3022C161.673 39.1423 161.794 39.0441 161.94 39.0078C162.087 38.9714 162.24 39.0014 162.4 39.0976L164.25 40.2118C164.364 40.2805 164.456 40.2578 164.525 40.1436L167.001 36.0314C167.097 35.8714 167.218 35.7733 167.365 35.7369C167.511 35.7006 167.664 35.7305 167.824 35.8268L172.964 38.9216C173.124 39.0179 173.222 39.1392 173.259 39.2856C173.295 39.432 173.265 39.5852 173.169 39.7451L170.693 43.8573C170.624 43.9715 170.647 44.063 170.761 44.1318L173.606 45.8442C173.765 45.9405 173.864 46.0619 173.9 46.2083C173.936 46.3547 173.906 46.5078 173.81 46.6677L171.334 50.78Z" fill="#A9CAEC"/>
<path d="M240.552 81.8637C239.657 81.2352 239.115 80.4303 238.924 79.449C238.771 78.4613 239.008 77.5201 239.637 76.6256C240.281 75.7092 241.086 75.1666 242.052 74.9979C243.039 74.8446 243.98 75.0822 244.875 75.7108C245.77 76.3393 246.301 77.1366 246.47 78.1025C246.66 79.0837 246.434 80.0325 245.79 80.9489C245.177 81.8217 244.368 82.3457 243.365 82.5208C242.384 82.7113 241.446 82.4923 240.552 81.8637ZM225.17 98.1883C225.018 98.081 224.928 97.9531 224.902 97.8045C224.876 97.6559 224.917 97.5052 225.024 97.3525L236.293 81.3155C236.4 81.1627 236.528 81.0734 236.677 81.0475C236.825 81.0215 236.976 81.0622 237.129 81.1695L242.3 84.803C242.452 84.9103 242.542 85.0382 242.568 85.1868C242.594 85.3354 242.553 85.4861 242.446 85.6388L231.177 101.676C231.07 101.829 230.942 101.918 230.793 101.944C230.645 101.97 230.494 101.929 230.341 101.822L225.17 98.1883Z" fill="#A9CAEC"/>
<path d="M259.543 94.851C260.712 95.4931 261.622 96.3281 262.275 97.356C262.927 98.3839 263.246 99.548 263.231 100.848C263.252 102.138 262.891 103.461 262.146 104.816L255.865 116.244C255.775 116.408 255.658 116.511 255.513 116.553C255.368 116.595 255.214 116.571 255.051 116.481L249.512 113.437C249.348 113.347 249.245 113.23 249.203 113.085C249.161 112.94 249.185 112.786 249.275 112.622L254.765 102.632C255.151 101.931 255.272 101.267 255.129 100.641C255.023 100.004 254.677 99.5252 254.093 99.2041C253.485 98.8702 252.873 98.8225 252.255 99.0611C251.673 99.2891 251.189 99.7536 250.804 100.455L245.314 110.445C245.224 110.609 245.106 110.712 244.962 110.754C244.817 110.796 244.663 110.772 244.499 110.682L238.96 107.639C238.797 107.549 238.694 107.431 238.652 107.286C238.61 107.142 238.633 106.987 238.723 106.824L248.163 89.6466C248.253 89.483 248.37 89.3802 248.515 89.3381C248.66 89.296 248.814 89.3199 248.978 89.4098L254.517 92.4536C254.68 92.5435 254.783 92.6609 254.825 92.8057C254.867 92.9506 254.843 93.1048 254.753 93.2684L254.06 94.5304C254.009 94.6239 254 94.6951 254.034 94.7442C254.068 94.7933 254.115 94.7892 254.177 94.7319C255.862 93.771 257.65 93.8107 259.543 94.851Z" fill="#A9CAEC"/>
<path d="M282.342 111.309C282.273 111.482 282.169 111.599 282.031 111.658C281.892 111.718 281.736 111.713 281.563 111.644L278.48 110.412C278.356 110.363 278.269 110.4 278.22 110.524L275.89 116.356C275.396 117.594 275.594 118.391 276.486 118.747L277.86 119.296C278.033 119.365 278.15 119.469 278.209 119.608C278.269 119.747 278.264 119.903 278.195 120.076L276.296 124.831C276.157 125.177 275.892 125.301 275.501 125.203C274.506 124.891 273.562 124.557 272.671 124.201C270.417 123.301 268.896 122.292 268.108 121.173C267.32 120.054 267.3 118.524 268.047 116.583L271.533 107.853C271.583 107.729 271.545 107.643 271.422 107.593L269.416 106.792C269.242 106.723 269.126 106.619 269.066 106.48C269.007 106.342 269.012 106.186 269.081 106.012L270.862 101.555C270.931 101.381 271.035 101.265 271.173 101.205C271.312 101.146 271.468 101.151 271.641 101.22L273.647 102.021C273.771 102.071 273.858 102.034 273.907 101.91L275.688 97.4521C275.757 97.2788 275.861 97.1623 275.999 97.1028C276.138 97.0434 276.294 97.0482 276.467 97.1175L282.039 99.343C282.213 99.4122 282.329 99.5162 282.389 99.6548C282.448 99.7934 282.443 99.9494 282.374 100.123L280.594 104.58C280.544 104.704 280.581 104.791 280.705 104.84L283.788 106.072C283.962 106.141 284.078 106.245 284.137 106.383C284.197 106.522 284.192 106.678 284.123 106.851L282.342 111.309Z" fill="#A9CAEC"/>
<path d="M306.682 121.965C306.61 122.552 306.496 123.143 306.34 123.736C306.231 124.148 306.133 124.467 306.047 124.693C305.951 125.054 305.711 125.183 305.324 125.081L293.719 122.025C293.616 121.998 293.551 122.036 293.524 122.139C293.463 122.371 293.495 122.669 293.619 123.033C293.762 123.539 294.115 124.032 294.678 124.511C295.274 124.972 295.984 125.31 296.809 125.528C297.506 125.711 298.177 125.778 298.825 125.728C299.472 125.678 300.053 125.513 300.568 125.235C300.724 125.166 300.866 125.148 300.995 125.182C301.176 125.23 301.297 125.345 301.36 125.527L303.311 130.053C303.381 130.209 303.395 130.364 303.354 130.519C303.313 130.674 303.215 130.786 303.059 130.855C301.925 131.494 300.63 131.856 299.174 131.941C297.724 132.001 296.226 131.827 294.679 131.419C292.28 130.788 290.363 129.745 288.926 128.291C287.489 126.837 286.628 125.08 286.343 123.02C286.129 121.529 286.225 120.011 286.633 118.463C287.061 116.839 287.673 115.456 288.47 114.314C289.682 112.538 291.234 111.306 293.125 110.618C295.016 109.93 297.044 109.871 299.21 110.442C300.861 110.876 302.28 111.664 303.469 112.804C304.684 113.951 305.562 115.327 306.105 116.932C306.68 118.517 306.873 120.195 306.682 121.965ZM297.532 116.659C296.474 116.381 295.604 116.703 294.919 117.626L294.653 118.011C294.606 118.081 294.602 118.149 294.64 118.214C294.685 118.254 294.733 118.28 294.785 118.294L299.194 119.455C299.298 119.482 299.363 119.444 299.39 119.341C299.417 119.238 299.423 119.06 299.406 118.808C299.406 118.284 299.234 117.838 298.889 117.472C298.577 117.086 298.125 116.815 297.532 116.659Z" fill="#A9CAEC"/>
<path d="M326.774 115.674C327.673 115.796 328.363 116.065 328.844 116.48C329.064 116.645 329.123 116.908 329.02 117.271L327.239 123.246C327.184 123.453 327.087 123.575 326.948 123.61C326.835 123.648 326.676 123.627 326.472 123.545C326.011 123.375 325.595 123.264 325.225 123.214C324.829 123.16 324.454 123.15 324.099 123.182C323.394 123.221 322.76 123.431 322.197 123.812C321.664 124.17 321.347 124.719 321.247 125.459L319.896 135.408C319.87 135.593 319.798 135.731 319.678 135.822C319.558 135.914 319.405 135.947 319.22 135.922L312.958 135.071C312.773 135.046 312.635 134.973 312.543 134.853C312.452 134.733 312.419 134.581 312.444 134.396L315.082 114.974C315.107 114.789 315.18 114.651 315.3 114.56C315.42 114.468 315.572 114.435 315.757 114.46L322.02 115.311C322.205 115.336 322.343 115.409 322.434 115.529C322.526 115.649 322.559 115.801 322.534 115.986L322.404 116.937C322.394 117.017 322.413 117.073 322.462 117.107C322.511 117.14 322.553 117.133 322.586 117.083C323.766 115.925 325.162 115.455 326.774 115.674Z" fill="#A9CAEC"/>
<path d="M343.343 116.617C345.156 116.644 346.818 116.976 348.329 117.612C349.839 118.248 351.026 119.106 351.89 120.186C352.754 121.265 353.177 122.432 353.158 123.685L352.954 137.283C352.951 137.47 352.896 137.616 352.787 137.721C352.679 137.826 352.532 137.877 352.345 137.874L346.026 137.78C345.839 137.777 345.693 137.721 345.588 137.613C345.483 137.505 345.432 137.357 345.435 137.171L345.456 135.771C345.457 135.664 345.432 135.61 345.378 135.61C345.352 135.583 345.312 135.609 345.257 135.688C344.791 136.508 344.156 137.111 343.35 137.499C342.544 137.861 341.488 138.031 340.182 138.012C337.995 137.979 336.283 137.46 335.044 136.455C333.806 135.423 333.202 133.947 333.231 132.027C333.261 130.001 333.991 128.451 335.421 127.379C336.877 126.308 338.965 125.792 341.684 125.833L345.404 125.889C345.537 125.891 345.605 125.825 345.607 125.692L345.618 124.972C345.626 124.412 345.42 123.956 344.998 123.603C344.604 123.25 344.06 123.068 343.366 123.058C342.886 123.051 342.459 123.124 342.083 123.279C341.707 123.433 341.437 123.642 341.273 123.907C341.164 124.092 341.055 124.223 340.947 124.302C340.867 124.354 340.746 124.365 340.587 124.336L334.16 123.44C333.787 123.381 333.603 123.218 333.607 122.952C333.731 121.753 334.228 120.667 335.096 119.694C335.964 118.72 337.109 117.964 338.53 117.425C339.979 116.86 341.583 116.591 343.343 116.617ZM342.579 132.847C343.433 132.86 344.129 132.644 344.669 132.199C345.236 131.754 345.525 131.145 345.537 130.371L345.545 129.851C345.547 129.718 345.481 129.65 345.348 129.648L343.348 129.618C341.668 129.593 340.82 130.127 340.804 131.22C340.796 131.7 340.937 132.089 341.226 132.387C341.542 132.685 341.993 132.838 342.579 132.847Z" fill="#A9CAEC"/>
<path d="M371.787 136.567C369.536 136.839 367.512 136.532 365.713 135.648C363.911 134.737 362.508 133.348 361.504 131.482C360.812 130.195 360.365 128.718 360.164 127.05C359.966 125.409 360.05 123.881 360.417 122.467C360.932 120.498 361.972 118.882 363.539 117.618C365.103 116.329 366.996 115.55 369.22 115.281C371.471 115.01 373.525 115.34 375.383 116.271C377.264 117.172 378.612 118.433 379.425 120.054C379.668 120.508 379.847 120.997 379.964 121.52L379.979 121.639C380.011 121.904 379.859 122.097 379.525 122.218L373.489 123.953L373.37 123.967C373.026 124.009 372.82 123.859 372.752 123.518L372.526 122.981C372.339 122.547 372.003 122.211 371.518 121.974C371.056 121.708 370.534 121.61 369.951 121.68C368.892 121.808 368.195 122.375 367.86 123.382C367.622 124.083 367.574 125.015 367.714 126.18C367.845 127.266 368.101 128.161 368.481 128.868C369.059 129.872 369.891 130.309 370.976 130.178C372.141 130.038 372.862 129.333 373.139 128.064L373.159 127.901C373.184 127.441 373.387 127.228 373.767 127.263L380.087 127.549C380.441 127.587 380.635 127.751 380.67 128.042C380.708 128.36 380.668 128.808 380.55 129.386C380.095 131.402 379.071 133.043 377.477 134.31C375.908 135.547 374.011 136.299 371.787 136.567Z" fill="#A9CAEC"/>
<path d="M398.885 115.248C398.929 115.429 398.912 115.584 398.834 115.713C398.756 115.842 398.626 115.929 398.445 115.973L395.22 116.763C395.09 116.794 395.041 116.875 395.073 117.004L396.566 123.104C396.883 124.399 397.507 124.933 398.44 124.705L399.878 124.353C400.059 124.309 400.214 124.326 400.343 124.404C400.472 124.482 400.559 124.612 400.603 124.793L401.82 129.766C401.909 130.129 401.765 130.384 401.389 130.531C400.398 130.856 399.436 131.132 398.504 131.36C396.147 131.937 394.322 131.999 393.031 131.547C391.74 131.094 390.834 129.86 390.314 127.846L388.079 118.716C388.048 118.586 387.967 118.537 387.838 118.569L385.739 119.083C385.558 119.127 385.403 119.11 385.274 119.032C385.145 118.953 385.058 118.824 385.014 118.642L383.873 113.98C383.829 113.799 383.846 113.643 383.924 113.515C384.002 113.386 384.132 113.299 384.313 113.255L386.411 112.741C386.541 112.709 386.59 112.629 386.558 112.499L385.417 107.837C385.373 107.656 385.39 107.5 385.468 107.371C385.546 107.242 385.676 107.156 385.857 107.111L391.685 105.685C391.867 105.641 392.022 105.658 392.151 105.736C392.28 105.814 392.366 105.944 392.411 106.125L393.552 110.788C393.583 110.917 393.664 110.966 393.794 110.935L397.018 110.145C397.2 110.101 397.355 110.118 397.484 110.196C397.613 110.274 397.699 110.404 397.744 110.586L398.885 115.248Z" fill="#A9CAEC"/>
<path d="M406.527 105.603C405.493 105.959 404.523 105.928 403.616 105.507C402.726 105.053 402.102 104.309 401.746 103.276C401.38 102.217 401.412 101.247 401.841 100.365C402.295 99.475 403.039 98.8513 404.072 98.4945C405.106 98.1376 406.063 98.1737 406.945 98.6027C407.852 99.0231 408.488 99.7626 408.854 100.821C409.202 101.829 409.153 102.791 408.708 103.707C408.287 104.614 407.56 105.246 406.527 105.603ZM410.748 127.631C410.572 127.692 410.416 127.69 410.28 127.624C410.145 127.558 410.046 127.436 409.985 127.26L403.588 108.733C403.527 108.557 403.529 108.401 403.595 108.265C403.661 108.13 403.783 108.031 403.959 107.97L409.933 105.908C410.109 105.847 410.265 105.849 410.401 105.915C410.537 105.981 410.635 106.102 410.696 106.279L417.094 124.805C417.154 124.982 417.152 125.138 417.086 125.273C417.02 125.409 416.899 125.507 416.722 125.568L410.748 127.631Z" fill="#A9CAEC"/>
<path d="M434.972 118.322C432.683 119.407 430.452 119.712 428.279 119.237C426.13 118.75 424.306 117.578 422.807 115.721C422.155 114.968 421.577 114.061 421.075 113.001C420.515 111.82 420.152 110.679 419.984 109.578C419.615 107.304 419.933 105.235 420.939 103.372C421.957 101.473 423.587 99.9923 425.828 98.9304C428.069 97.8684 430.223 97.5561 432.289 97.9935C434.368 98.3953 436.159 99.4352 437.662 101.113C438.431 101.988 439.084 102.992 439.62 104.125C440.054 105.04 440.392 106.002 440.633 107.009C441.154 109.418 440.923 111.637 439.937 113.668C438.965 115.663 437.31 117.215 434.972 118.322ZM432.215 112.503C432.841 112.206 433.25 111.761 433.442 111.169C433.622 110.552 433.618 109.86 433.432 109.093C433.311 108.59 433.102 108.025 432.806 107.398C432.543 106.844 432.22 106.318 431.837 105.821C430.802 104.57 429.706 104.219 428.549 104.767C427.344 105.338 426.922 106.409 427.282 107.979C427.356 108.446 427.558 109.029 427.89 109.727C428.186 110.354 428.492 110.873 428.805 111.286C429.897 112.657 431.034 113.062 432.215 112.503Z" fill="#A9CAEC"/>
<path d="M450.608 84.8275C451.721 84.0941 452.885 83.6789 454.098 83.582C455.312 83.4851 456.49 83.7468 457.633 84.367C458.783 84.9502 459.784 85.8876 460.635 87.1792L467.808 98.0688C467.911 98.2247 467.947 98.3765 467.917 98.5242C467.886 98.672 467.793 98.7972 467.637 98.8999L462.36 102.377C462.204 102.479 462.052 102.515 461.904 102.485C461.756 102.455 461.631 102.362 461.529 102.206L455.257 92.6856C454.817 92.0175 454.287 91.6004 453.667 91.4343C453.054 91.2312 452.469 91.3131 451.912 91.6798C451.333 92.0612 451.005 92.5809 450.927 93.2387C450.857 93.8596 451.043 94.504 451.483 95.1721L457.754 104.692C457.857 104.848 457.893 105 457.862 105.148C457.832 105.295 457.739 105.421 457.583 105.523L452.305 109C452.149 109.103 451.997 109.139 451.85 109.108C451.702 109.078 451.577 108.985 451.474 108.829L440.692 92.4612C440.589 92.3054 440.553 92.1535 440.583 92.0058C440.614 91.858 440.707 91.7328 440.863 91.6301L446.141 88.1534C446.296 88.0507 446.448 88.0146 446.596 88.045C446.744 88.0754 446.869 88.1685 446.972 88.3244L447.764 89.5269C447.823 89.616 447.881 89.657 447.941 89.6499C448 89.6428 448.019 89.5986 447.997 89.5171C447.934 87.579 448.804 86.0158 450.608 84.8275Z" fill="#A9CAEC"/>
</g>
<path d="M210.334 64.8464C210.493 64.9438 210.591 65.0658 210.626 65.2124C210.661 65.3591 210.63 65.512 210.533 65.6713L207.82 70.1076C207.723 70.2668 207.601 70.3641 207.454 70.3995C207.307 70.4348 207.154 70.4038 206.995 70.3064L203.037 67.8857C202.923 67.8161 202.831 67.8382 202.762 67.952L200.341 71.9105C200.244 72.0697 200.122 72.167 199.975 72.2024C199.828 72.2377 199.675 72.2067 199.516 72.1093L195.08 69.3965C194.921 69.2991 194.823 69.1771 194.788 69.0304C194.753 68.8838 194.784 68.7308 194.881 68.5716L197.302 64.6131C197.371 64.4993 197.349 64.4077 197.235 64.3381L193.277 61.9174C193.118 61.82 193.02 61.698 192.985 61.5514C192.95 61.4047 192.981 61.2518 193.078 61.0925L195.791 56.6562C195.888 56.497 196.01 56.3997 196.157 56.3643C196.304 56.329 196.457 56.36 196.616 56.4574L200.574 58.8781C200.688 58.9477 200.78 58.9256 200.849 58.8118L203.27 54.8533C203.367 54.6941 203.489 54.5968 203.636 54.5614C203.783 54.5261 203.936 54.5571 204.095 54.6545L208.531 57.3673C208.69 57.4647 208.788 57.5867 208.823 57.7334C208.858 57.88 208.827 58.033 208.73 58.1922L206.309 62.1507C206.24 62.2645 206.262 62.3561 206.376 62.4257L210.334 64.8464Z" fill="white"/>
<path d="M15.1912 48.3601C14.3422 49.049 13.4197 49.3511 12.4238 49.2664C11.4317 49.1441 10.5913 48.6585 9.90237 47.8095C9.19669 46.9398 8.89461 46.0173 8.99616 45.042C9.11841 44.05 9.60403 43.2095 10.453 42.5206C11.3021 41.8317 12.2142 41.5381 13.1894 41.6396C14.1854 41.7243 15.0362 42.2016 15.7419 43.0713C16.414 43.8996 16.6973 44.8201 16.5918 45.8329C16.5071 46.8288 16.0402 47.6713 15.1912 48.3601ZM26.694 67.6154C26.5491 67.733 26.4016 67.784 26.2516 67.7684C26.1015 67.7528 25.9677 67.6725 25.8501 67.5275L13.5006 52.3075C13.3829 52.1626 13.3319 52.0151 13.3476 51.865C13.3632 51.715 13.4435 51.5812 13.5884 51.4635L18.4961 47.4814C18.6411 47.3638 18.7886 47.3128 18.9386 47.3285C19.0886 47.3441 19.2225 47.4244 19.3401 47.5693L31.6896 62.7893C31.8072 62.9343 31.8582 63.0818 31.8426 63.2318C31.827 63.3819 31.7467 63.5157 31.6017 63.6333L26.694 67.6154Z" fill="white"/>
<path d="M38.7404 34.151C39.9134 33.5172 41.1086 33.2049 42.326 33.214C43.5433 33.2231 44.6943 33.5863 45.779 34.3035C46.8744 34.9847 47.7898 36.0056 48.525 37.3664L54.7235 48.8389C54.8123 49.0032 54.8351 49.1576 54.7919 49.3021C54.7488 49.4467 54.6451 49.5633 54.4809 49.652L48.9206 52.6562C48.7563 52.745 48.602 52.7678 48.4574 52.7246C48.3129 52.6815 48.1962 52.5778 48.1075 52.4136L42.6885 42.3839C42.3082 41.6801 41.8163 41.2184 41.2127 40.9989C40.62 40.7433 40.0303 40.7739 39.4438 41.0908C38.8338 41.4204 38.4615 41.9095 38.327 42.5581C38.2033 43.1705 38.3315 43.8287 38.7118 44.5325L44.1308 54.5622C44.2195 54.7264 44.2423 54.8808 44.1992 55.0253C44.156 55.1699 44.0524 55.2865 43.8881 55.3753L38.3278 58.3795C38.1636 58.4682 38.0092 58.491 37.8647 58.4479C37.7201 58.4047 37.6035 58.301 37.5147 58.1368L28.1979 40.8928C28.1091 40.7286 28.0863 40.5742 28.1295 40.4296C28.1726 40.2851 28.2763 40.1684 28.4405 40.0797L34.0008 37.0755C34.1651 36.9868 34.3194 36.964 34.464 37.0071C34.6085 37.0502 34.7252 37.1539 34.8139 37.3182L35.4984 38.5851C35.5491 38.6789 35.6043 38.7249 35.6639 38.723C35.7235 38.7211 35.746 38.6786 35.7314 38.5956C35.837 36.6593 36.84 35.1778 38.7404 34.151Z" fill="white"/>
<path d="M70.6292 44.6211C67.7225 45.4154 65.2656 45.4785 63.2585 44.8106C61.2772 44.1356 60.03 42.8592 59.5169 40.9814L59.422 40.6341C59.3728 40.4541 59.3856 40.2985 59.4604 40.1675C59.5352 40.0365 59.6626 39.9464 59.8426 39.8972L65.6305 38.3157C66.0163 38.2103 66.2479 38.299 66.3252 38.582C66.4377 38.9936 66.7477 39.2682 67.2553 39.406C67.7886 39.5367 68.4154 39.5036 69.1357 39.3068C69.7016 39.1522 70.1307 38.952 70.4229 38.7063C70.7338 38.4278 70.8471 38.1343 70.7628 37.8256C70.6644 37.4655 70.3918 37.2773 69.9451 37.2612C69.4913 37.2193 68.7125 37.2524 67.6086 37.3605C66.596 37.499 65.6792 37.5836 64.8583 37.6144C64.0374 37.6452 63.2176 37.579 62.3989 37.4156C59.8915 36.9397 58.3215 35.5442 57.6889 33.2291C57.1195 31.1455 57.48 29.2777 58.7702 27.6259C60.0534 25.9484 62.0198 24.7476 64.6693 24.0236C66.47 23.5316 68.12 23.3987 69.6193 23.6248C71.1373 23.8182 72.4133 24.3403 73.4475 25.1911C74.4817 26.042 75.1885 27.1619 75.5681 28.551C75.6454 28.834 75.4911 29.0282 75.1053 29.1336L69.5104 30.6624C69.1245 30.7678 68.893 30.679 68.8156 30.3961C68.6961 29.9588 68.4118 29.6771 67.9627 29.551C67.5066 29.3992 66.957 29.4112 66.3139 29.5869C65.7222 29.7486 65.2616 29.985 64.932 30.2962C64.621 30.5747 64.5113 30.8811 64.6026 31.2155C64.7151 31.6271 65.0368 31.8433 65.5677 31.8641C66.0986 31.8849 66.9254 31.8248 68.048 31.684C68.1836 31.6746 68.6934 31.6182 69.5775 31.5148C70.4872 31.4045 71.3795 31.3818 72.2542 31.4469C73.7768 31.5561 75.0178 31.9496 75.977 32.6274C76.9549 33.2724 77.6337 34.2895 78.0133 35.6786C78.5896 37.7879 78.2058 39.6206 76.8617 41.1765C75.5106 42.7068 73.4331 43.8549 70.6292 44.6211Z" fill="white"/>
<path d="M87.5831 18.7621C86.4941 18.8591 85.5602 18.5944 84.7815 17.9677C84.027 17.3121 83.6012 16.4398 83.5041 15.3508C83.4046 14.2352 83.6694 13.3013 84.2985 12.5492C84.954 11.7947 85.8264 11.3688 86.9154 11.2718C88.0044 11.1747 88.925 11.4407 89.6771 12.0697C90.4558 12.6964 90.8949 13.5675 90.9944 14.683C91.0891 15.7455 90.8098 16.6673 90.1566 17.4484C89.53 18.2271 88.6721 18.665 87.5831 18.7621ZM86.367 41.1585C86.181 41.1751 86.0302 41.135 85.9145 41.0382C85.7988 40.9414 85.7326 40.8001 85.7161 40.6142L83.9757 21.0916C83.9591 20.9057 83.9992 20.7548 84.096 20.6391C84.1928 20.5234 84.3341 20.4572 84.5201 20.4407L90.8151 19.8795C91.001 19.8629 91.1518 19.903 91.2676 19.9998C91.3833 20.0966 91.4494 20.2379 91.466 20.4238L93.2064 39.9464C93.2229 40.1324 93.1828 40.2832 93.0861 40.3989C92.9893 40.5146 92.8479 40.5808 92.662 40.5973L86.367 41.1585Z" fill="white"/>
<path d="M115.083 21.0596C115.101 20.8738 115.168 20.733 115.285 20.6372C115.401 20.5414 115.552 20.5026 115.738 20.5207L122.028 21.1352C122.214 21.1534 122.355 21.2207 122.451 21.3372C122.546 21.4538 122.585 21.6049 122.567 21.7907L120.868 39.1879C120.497 42.9832 119.132 45.5694 116.774 46.9466C114.439 48.353 111.613 48.8941 108.296 48.57C106.81 48.4249 105.428 48.1693 104.151 47.8034C103.814 47.6901 103.663 47.4476 103.699 47.0761L104.463 41.725C104.507 41.2738 104.762 41.1379 105.227 41.3173C106.313 41.7181 107.347 41.9665 108.329 42.0624C109.603 42.1869 110.677 42.0239 111.552 41.5734C112.426 41.123 112.996 40.3615 113.262 39.2889C113.299 39.1853 113.279 39.1164 113.202 39.0821C113.151 39.0503 113.082 39.0704 112.995 39.1422C112.009 39.9034 110.668 40.201 108.969 40.035C104.722 39.6202 102.184 37.6306 101.353 34.0663C101.032 32.6952 100.958 31.1206 101.131 29.3424C101.323 27.3784 101.765 25.7336 102.457 24.4079C103.258 22.7981 104.383 21.5683 105.832 20.7186C107.308 19.8714 108.935 19.5347 110.713 19.7084C112.545 19.8873 113.897 20.582 114.77 21.7926C114.818 21.8509 114.868 21.8826 114.921 21.8878C114.977 21.8665 115.009 21.816 115.017 21.7363L115.083 21.0596ZM113.487 33.2823C113.82 32.6182 114.042 31.7155 114.153 30.5743C114.257 29.5127 114.195 28.6358 113.968 27.9438C113.61 26.9443 112.901 26.3927 111.839 26.289C110.91 26.1982 110.161 26.594 109.593 27.4762C109.096 28.1779 108.794 29.0728 108.688 30.1609C108.584 31.2225 108.672 32.1019 108.952 32.7992C109.339 33.7747 110.064 34.3144 111.125 34.4181C112.187 34.5218 112.974 34.1432 113.487 33.2823Z" fill="white"/>
<path d="M145.623 27.3948C146.882 27.8325 147.92 28.5035 148.735 29.4078C149.55 30.3121 150.059 31.4065 150.262 32.6909C150.498 33.959 150.363 35.3235 149.855 36.7844L145.575 49.1018C145.513 49.2781 145.415 49.3991 145.279 49.4649C145.143 49.5306 144.987 49.5328 144.811 49.4716L138.841 47.3969C138.665 47.3356 138.544 47.2371 138.478 47.1013C138.412 46.9655 138.41 46.8095 138.471 46.6331L142.214 35.8649C142.476 35.1092 142.485 34.4347 142.239 33.8412C142.028 33.2313 141.607 32.8169 140.977 32.5981C140.323 32.3705 139.71 32.4259 139.141 32.7645C138.606 33.0866 138.207 33.6254 137.944 34.3811L134.202 45.1493C134.14 45.3257 134.042 45.4467 133.906 45.5124C133.77 45.5782 133.614 45.5804 133.438 45.5191L127.468 43.4444C127.292 43.3832 127.171 43.2846 127.105 43.1489C127.039 43.0131 127.037 42.857 127.098 42.6807L135.896 17.3659C135.958 17.1896 136.056 17.0686 136.192 17.0028C136.328 16.9371 136.484 16.9349 136.66 16.9961L142.63 19.0708C142.806 19.1321 142.927 19.2306 142.993 19.3664C143.059 19.5022 143.061 19.6582 142.999 19.8345L140.163 27.9957C140.128 28.0965 140.131 28.1682 140.173 28.2109C140.215 28.2536 140.261 28.2415 140.313 28.1747C141.813 26.9457 143.583 26.6857 145.623 27.3948Z" fill="white"/>
<path d="M171.334 46.78C171.238 46.9399 171.117 47.038 170.97 47.0744C170.824 47.1108 170.671 47.0808 170.511 46.9845L167.666 45.2721C167.552 45.2033 167.461 45.226 167.392 45.3403L164.153 50.7204C163.465 51.8627 163.532 52.6814 164.355 53.1766L165.623 53.94C165.783 54.0362 165.881 54.1576 165.917 54.304C165.954 54.4504 165.924 54.6035 165.827 54.7635L163.186 59.1498C162.994 59.4697 162.713 59.5493 162.342 59.3886C161.41 58.9208 160.533 58.4392 159.71 57.9441C157.631 56.6924 156.293 55.451 155.696 54.2199C155.099 52.9888 155.325 51.4753 156.375 49.6796L161.224 41.6265C161.292 41.5123 161.27 41.4208 161.155 41.352L159.305 40.2379C159.145 40.1416 159.047 40.0203 159.011 39.8739C158.974 39.7275 159.004 39.5743 159.1 39.4144L161.576 35.3022C161.673 35.1423 161.794 35.0441 161.94 35.0078C162.087 34.9714 162.24 35.0014 162.4 35.0976L164.25 36.2118C164.364 36.2805 164.456 36.2578 164.525 36.1436L167.001 32.0314C167.097 31.8714 167.218 31.7733 167.365 31.7369C167.511 31.7006 167.664 31.7305 167.824 31.8268L172.964 34.9216C173.124 35.0179 173.222 35.1392 173.259 35.2856C173.295 35.432 173.265 35.5852 173.169 35.7451L170.693 39.8573C170.624 39.9715 170.647 40.063 170.761 40.1318L173.606 41.8442C173.765 41.9405 173.864 42.0619 173.9 42.2083C173.936 42.3547 173.906 42.5078 173.81 42.6677L171.334 46.78Z" fill="white"/>
<path d="M240.552 77.8637C239.657 77.2352 239.115 76.4303 238.924 75.449C238.771 74.4613 239.008 73.5201 239.637 72.6256C240.281 71.7092 241.086 71.1666 242.052 70.9979C243.039 70.8446 243.98 71.0822 244.875 71.7108C245.77 72.3393 246.301 73.1366 246.47 74.1025C246.66 75.0837 246.434 76.0325 245.79 76.9489C245.177 77.8217 244.368 78.3457 243.365 78.5208C242.384 78.7113 241.446 78.4923 240.552 77.8637ZM225.17 94.1883C225.018 94.081 224.928 93.9531 224.902 93.8045C224.876 93.6559 224.917 93.5052 225.024 93.3525L236.293 77.3155C236.4 77.1627 236.528 77.0734 236.677 77.0475C236.825 77.0215 236.976 77.0622 237.129 77.1695L242.3 80.803C242.452 80.9103 242.542 81.0382 242.568 81.1868C242.594 81.3354 242.553 81.4861 242.446 81.6388L231.177 97.6758C231.07 97.8286 230.942 97.9179 230.793 97.9439C230.645 97.9698 230.494 97.9291 230.341 97.8218L225.17 94.1883Z" fill="white"/>
<path d="M259.543 90.851C260.712 91.4931 261.622 92.3281 262.275 93.356C262.927 94.3839 263.246 95.548 263.231 96.8483C263.252 98.1381 262.891 99.4607 262.146 100.816L255.865 112.244C255.775 112.408 255.658 112.511 255.513 112.553C255.368 112.595 255.214 112.571 255.051 112.481L249.512 109.437C249.348 109.347 249.245 109.23 249.203 109.085C249.161 108.94 249.185 108.786 249.275 108.622L254.765 98.6316C255.151 97.9305 255.272 97.2669 255.129 96.6408C255.023 96.0041 254.677 95.5252 254.093 95.2041C253.485 94.8702 252.873 94.8225 252.255 95.0611C251.673 95.2891 251.189 95.7536 250.804 96.4547L245.314 106.445C245.224 106.609 245.106 106.712 244.962 106.754C244.817 106.796 244.663 106.772 244.499 106.682L238.96 103.639C238.797 103.549 238.694 103.431 238.652 103.286C238.61 103.142 238.633 102.987 238.723 102.824L248.163 85.6466C248.253 85.483 248.37 85.3802 248.515 85.3381C248.66 85.296 248.814 85.3199 248.978 85.4098L254.517 88.4536C254.68 88.5435 254.783 88.6609 254.825 88.8057C254.867 88.9506 254.843 89.1048 254.753 89.2684L254.06 90.5304C254.009 90.6239 254 90.6951 254.034 90.7442C254.068 90.7933 254.115 90.7892 254.177 90.7319C255.862 89.771 257.65 89.8107 259.543 90.851Z" fill="white"/>
<path d="M282.342 107.309C282.273 107.482 282.169 107.599 282.031 107.658C281.892 107.718 281.736 107.713 281.563 107.644L278.48 106.412C278.356 106.363 278.269 106.4 278.22 106.524L275.89 112.356C275.396 113.594 275.594 114.391 276.486 114.747L277.86 115.296C278.033 115.365 278.15 115.469 278.209 115.608C278.269 115.747 278.264 115.903 278.195 116.076L276.296 120.831C276.157 121.177 275.892 121.301 275.501 121.203C274.506 120.891 273.562 120.557 272.671 120.201C270.417 119.301 268.896 118.292 268.108 117.173C267.32 116.054 267.3 114.524 268.047 112.583L271.533 103.853C271.583 103.729 271.545 103.643 271.422 103.593L269.416 102.792C269.242 102.723 269.126 102.619 269.066 102.48C269.007 102.342 269.012 102.186 269.081 102.012L270.862 97.5547C270.931 97.3814 271.035 97.2649 271.173 97.2054C271.312 97.146 271.468 97.1508 271.641 97.2201L273.647 98.0213C273.771 98.0707 273.858 98.0335 273.907 97.9097L275.688 93.4521C275.757 93.2788 275.861 93.1623 275.999 93.1028C276.138 93.0434 276.294 93.0482 276.467 93.1175L282.039 95.343C282.213 95.4122 282.329 95.5162 282.389 95.6548C282.448 95.7934 282.443 95.9494 282.374 96.1227L280.594 100.58C280.544 100.704 280.581 100.791 280.705 100.84L283.788 102.072C283.962 102.141 284.078 102.245 284.137 102.383C284.197 102.522 284.192 102.678 284.123 102.851L282.342 107.309Z" fill="white"/>
<path d="M306.682 117.965C306.61 118.552 306.496 119.143 306.34 119.736C306.231 120.148 306.133 120.467 306.047 120.693C305.951 121.054 305.711 121.183 305.324 121.081L293.719 118.025C293.616 117.998 293.551 118.036 293.524 118.139C293.463 118.371 293.495 118.669 293.619 119.033C293.762 119.539 294.115 120.032 294.678 120.511C295.274 120.972 295.984 121.31 296.809 121.528C297.506 121.711 298.177 121.778 298.825 121.728C299.472 121.678 300.053 121.513 300.568 121.235C300.724 121.166 300.866 121.148 300.995 121.182C301.176 121.23 301.297 121.345 301.36 121.527L303.311 126.053C303.381 126.209 303.395 126.364 303.354 126.519C303.313 126.674 303.215 126.786 303.059 126.855C301.925 127.494 300.63 127.856 299.174 127.941C297.724 128.001 296.226 127.827 294.679 127.419C292.28 126.788 290.363 125.745 288.926 124.291C287.489 122.837 286.628 121.08 286.343 119.02C286.129 117.529 286.225 116.011 286.633 114.463C287.061 112.839 287.673 111.456 288.47 110.314C289.682 108.538 291.234 107.306 293.125 106.618C295.016 105.93 297.044 105.871 299.21 106.442C300.861 106.876 302.28 107.664 303.469 108.804C304.684 109.951 305.562 111.327 306.105 112.932C306.68 114.517 306.873 116.195 306.682 117.965ZM297.532 112.659C296.474 112.381 295.604 112.703 294.919 113.626L294.653 114.011C294.606 114.081 294.602 114.149 294.64 114.214C294.685 114.254 294.733 114.28 294.785 114.294L299.194 115.455C299.298 115.482 299.363 115.444 299.39 115.341C299.417 115.238 299.423 115.06 299.406 114.808C299.406 114.284 299.234 113.838 298.889 113.472C298.577 113.086 298.125 112.815 297.532 112.659Z" fill="white"/>
<path d="M326.774 111.674C327.673 111.796 328.363 112.065 328.844 112.48C329.064 112.645 329.123 112.908 329.02 113.271L327.239 119.246C327.184 119.453 327.087 119.575 326.948 119.61C326.835 119.648 326.676 119.627 326.472 119.545C326.011 119.375 325.595 119.264 325.225 119.214C324.829 119.16 324.454 119.15 324.099 119.182C323.394 119.221 322.76 119.431 322.197 119.812C321.664 120.17 321.347 120.719 321.247 121.459L319.896 131.408C319.87 131.593 319.798 131.731 319.678 131.822C319.558 131.914 319.405 131.947 319.22 131.922L312.958 131.071C312.773 131.046 312.635 130.973 312.543 130.853C312.452 130.733 312.419 130.581 312.444 130.396L315.082 110.974C315.107 110.789 315.18 110.651 315.3 110.56C315.42 110.468 315.572 110.435 315.757 110.46L322.02 111.311C322.205 111.336 322.343 111.409 322.434 111.529C322.526 111.649 322.559 111.801 322.534 111.986L322.404 112.937C322.394 113.017 322.413 113.073 322.462 113.107C322.511 113.14 322.553 113.133 322.586 113.083C323.766 111.925 325.162 111.455 326.774 111.674Z" fill="white"/>
<path d="M343.343 112.617C345.156 112.644 346.818 112.976 348.329 113.612C349.839 114.248 351.026 115.106 351.89 116.186C352.754 117.265 353.177 118.432 353.158 119.685L352.954 133.283C352.951 133.47 352.896 133.616 352.787 133.721C352.679 133.826 352.532 133.877 352.345 133.874L346.026 133.78C345.839 133.777 345.693 133.721 345.588 133.613C345.483 133.505 345.432 133.357 345.435 133.171L345.456 131.771C345.457 131.664 345.432 131.61 345.378 131.61C345.352 131.583 345.312 131.609 345.257 131.688C344.791 132.508 344.156 133.111 343.35 133.499C342.544 133.861 341.488 134.031 340.182 134.012C337.995 133.979 336.283 133.46 335.044 132.455C333.806 131.423 333.202 129.947 333.231 128.027C333.261 126.001 333.991 124.451 335.421 123.379C336.877 122.308 338.965 121.792 341.684 121.833L345.404 121.889C345.537 121.891 345.605 121.825 345.607 121.692L345.618 120.972C345.626 120.412 345.42 119.956 344.998 119.603C344.604 119.25 344.06 119.068 343.366 119.058C342.886 119.051 342.459 119.124 342.083 119.279C341.707 119.433 341.437 119.642 341.273 119.907C341.164 120.092 341.055 120.223 340.947 120.302C340.867 120.354 340.746 120.365 340.587 120.336L334.16 119.44C333.787 119.381 333.603 119.218 333.607 118.952C333.731 117.753 334.228 116.667 335.096 115.694C335.964 114.72 337.109 113.964 338.53 113.425C339.979 112.86 341.583 112.591 343.343 112.617ZM342.579 128.847C343.433 128.86 344.129 128.644 344.669 128.199C345.236 127.754 345.525 127.145 345.537 126.371L345.545 125.851C345.547 125.718 345.481 125.65 345.348 125.648L343.348 125.618C341.668 125.593 340.82 126.127 340.804 127.22C340.796 127.7 340.937 128.089 341.226 128.387C341.542 128.685 341.993 128.838 342.579 128.847Z" fill="white"/>
<path d="M371.787 132.567C369.536 132.839 367.512 132.532 365.713 131.648C363.911 130.737 362.508 129.348 361.504 127.482C360.812 126.195 360.365 124.718 360.164 123.05C359.966 121.409 360.05 119.881 360.417 118.467C360.932 116.498 361.972 114.882 363.539 113.618C365.103 112.329 366.996 111.55 369.22 111.281C371.471 111.01 373.525 111.34 375.383 112.271C377.264 113.172 378.612 114.433 379.425 116.054C379.668 116.508 379.847 116.997 379.964 117.52L379.979 117.639C380.011 117.904 379.859 118.097 379.525 118.218L373.489 119.953L373.37 119.967C373.026 120.009 372.82 119.859 372.752 119.518L372.526 118.981C372.339 118.547 372.003 118.211 371.518 117.974C371.056 117.708 370.534 117.61 369.951 117.68C368.892 117.808 368.195 118.375 367.86 119.382C367.622 120.083 367.574 121.015 367.714 122.18C367.845 123.266 368.101 124.161 368.481 124.868C369.059 125.872 369.891 126.309 370.976 126.178C372.141 126.038 372.862 125.333 373.139 124.064L373.159 123.901C373.184 123.441 373.387 123.228 373.767 123.263L380.087 123.549C380.441 123.587 380.635 123.751 380.67 124.042C380.708 124.36 380.668 124.808 380.55 125.386C380.095 127.402 379.071 129.043 377.477 130.31C375.908 131.547 374.011 132.299 371.787 132.567Z" fill="white"/>
<path d="M398.885 111.248C398.929 111.429 398.912 111.584 398.834 111.713C398.756 111.842 398.626 111.929 398.445 111.973L395.22 112.763C395.09 112.794 395.041 112.875 395.073 113.004L396.566 119.104C396.883 120.399 397.507 120.933 398.44 120.705L399.878 120.353C400.059 120.309 400.214 120.326 400.343 120.404C400.472 120.482 400.559 120.612 400.603 120.793L401.82 125.766C401.909 126.129 401.765 126.384 401.389 126.531C400.398 126.856 399.436 127.132 398.504 127.36C396.147 127.937 394.322 127.999 393.031 127.547C391.74 127.094 390.834 125.86 390.314 123.846L388.079 114.716C388.048 114.586 387.967 114.537 387.838 114.569L385.739 115.083C385.558 115.127 385.403 115.11 385.274 115.032C385.145 114.953 385.058 114.824 385.014 114.642L383.873 109.98C383.829 109.799 383.846 109.643 383.924 109.515C384.002 109.386 384.132 109.299 384.313 109.255L386.411 108.741C386.541 108.709 386.59 108.629 386.558 108.499L385.417 103.837C385.373 103.656 385.39 103.5 385.468 103.371C385.546 103.242 385.676 103.156 385.857 103.111L391.685 101.685C391.867 101.641 392.022 101.658 392.151 101.736C392.28 101.814 392.366 101.944 392.411 102.125L393.552 106.788C393.583 106.917 393.664 106.966 393.794 106.935L397.018 106.145C397.2 106.101 397.355 106.118 397.484 106.196C397.613 106.274 397.699 106.404 397.744 106.586L398.885 111.248Z" fill="white"/>
<path d="M406.527 101.603C405.493 101.959 404.523 101.928 403.616 101.507C402.726 101.053 402.102 100.309 401.746 99.2758C401.38 98.2172 401.412 97.247 401.841 96.3653C402.295 95.475 403.039 94.8513 404.072 94.4945C405.106 94.1376 406.063 94.1737 406.945 94.6027C407.852 95.0231 408.488 95.7626 408.854 96.8212C409.202 97.8295 409.153 98.7914 408.708 99.707C408.287 100.614 407.56 101.246 406.527 101.603ZM410.748 123.631C410.572 123.692 410.416 123.69 410.28 123.624C410.145 123.558 410.046 123.436 409.985 123.26L403.588 104.733C403.527 104.557 403.529 104.401 403.595 104.265C403.661 104.13 403.783 104.031 403.959 103.97L409.933 101.908C410.109 101.847 410.265 101.849 410.401 101.915C410.537 101.981 410.635 102.102 410.696 102.279L417.094 120.805C417.154 120.982 417.152 121.138 417.086 121.273C417.02 121.409 416.899 121.507 416.722 121.568L410.748 123.631Z" fill="white"/>
<path d="M434.972 114.322C432.683 115.407 430.452 115.712 428.279 115.237C426.13 114.75 424.306 113.578 422.807 111.721C422.155 110.968 421.577 110.061 421.075 109.001C420.515 107.82 420.152 106.679 419.984 105.578C419.615 103.304 419.933 101.235 420.939 99.3717C421.957 97.4727 423.587 95.9923 425.828 94.9304C428.069 93.8684 430.223 93.5561 432.289 93.9935C434.368 94.3953 436.159 95.4352 437.662 97.1131C438.431 97.9882 439.084 98.992 439.62 100.125C440.054 101.04 440.392 102.002 440.633 103.009C441.154 105.418 440.923 107.637 439.937 109.668C438.965 111.663 437.31 113.215 434.972 114.322ZM432.215 108.503C432.841 108.206 433.25 107.761 433.442 107.169C433.622 106.552 433.618 105.86 433.432 105.093C433.311 104.59 433.102 104.025 432.806 103.398C432.543 102.844 432.22 102.318 431.837 101.821C430.802 100.57 429.706 100.219 428.549 100.767C427.344 101.338 426.922 102.409 427.282 103.979C427.356 104.446 427.558 105.029 427.89 105.727C428.186 106.354 428.492 106.873 428.805 107.286C429.897 108.657 431.034 109.062 432.215 108.503Z" fill="white"/>
<path d="M450.608 80.8275C451.721 80.0941 452.885 79.6789 454.098 79.582C455.312 79.4851 456.49 79.7468 457.633 80.367C458.783 80.9502 459.784 81.8876 460.635 83.1792L467.808 94.0688C467.911 94.2247 467.947 94.3765 467.917 94.5242C467.886 94.672 467.793 94.7972 467.637 94.8999L462.36 98.3766C462.204 98.4793 462.052 98.5155 461.904 98.4851C461.756 98.4547 461.631 98.3615 461.529 98.2056L455.257 88.6856C454.817 88.0175 454.287 87.6004 453.667 87.4343C453.054 87.2312 452.469 87.3131 451.912 87.6798C451.333 88.0612 451.005 88.5809 450.927 89.2387C450.857 89.8596 451.043 90.504 451.483 91.1721L457.754 100.692C457.857 100.848 457.893 101 457.862 101.148C457.832 101.295 457.739 101.421 457.583 101.523L452.305 105C452.149 105.103 451.997 105.139 451.85 105.108C451.702 105.078 451.577 104.985 451.474 104.829L440.692 88.4612C440.589 88.3054 440.553 88.1535 440.583 88.0058C440.614 87.858 440.707 87.7328 440.863 87.6301L446.141 84.1534C446.296 84.0507 446.448 84.0146 446.596 84.045C446.744 84.0754 446.869 84.1685 446.972 84.3244L447.764 85.5269C447.823 85.616 447.881 85.657 447.941 85.6499C448 85.6428 448.019 85.5986 447.997 85.5171C447.934 83.579 448.804 82.0158 450.608 80.8275Z" fill="white"/>
</g>
<defs>
<clipPath id="clip0_1_2">
<rect width="474" height="146" fill="white"/>
</clipPath>
</defs>
</svg>
